<svg xmlns="http://www.w3.org/2000/svg" xmlns:xlink="http://www.w3.org/1999/xlink" viewBox="0 0 627 450"><defs><style>.cls-1{opacity:0.1;}.cls-2,.cls-5,.cls-6,.cls-7{fill:none;}.cls-2,.cls-5,.cls-7{stroke:#2b3d7c;stroke-miterlimit:10;}.cls-2{stroke-width:0.25px;}.cls-3{fill:#2b3d7c;}.cls-4{opacity:0.5;}.cls-5{stroke-width:0.51px;}.cls-6{stroke-linecap:round;stroke-linejoin:round;stroke-width:3.05px;stroke:url(#New_Gradient_Swatch_1);}.cls-7{stroke-width:2.03px;}</style><linearGradient id="New_Gradient_Swatch_1" x1="124.51" y1="225" x2="502.49" y2="225" gradientUnits="userSpaceOnUse"><stop offset="0" stop-color="#00adec"/><stop offset="1" stop-color="#62fbbc"/></linearGradient></defs><title>Harmony-Home-Scale</title><g id="Layer_20" data-name="Layer 20"><g class="cls-1"><polyline class="cls-2" points="250.07 225 281.79 243.31 345.21 243.31 376.93 225"/><polyline class="cls-2" points="250.07 225 281.79 243.31 345.21 243.31 376.93 225"/><line class="cls-2" x1="313.5" y1="188.39" x2="281.79" y2="170.08"/><line class="cls-2" x1="345.21" y1="279.35" x2="345.21" y2="243.02"/><line class="cls-2" x1="345.21" y1="243.02" x2="313.5" y2="188.39"/><polyline class="cls-2" points="281.79 279.35 281.79 243.02 313.5 188.39 345.21 170.08"/><polyline class="cls-2" points="281.79 279.35 250.07 261.33 250.07 225.01 281.79 170.37 313.5 152.06 345.21 170.08"/><polyline class="cls-2" points="345.21 279.35 376.93 261.33 376.93 225.01 345.21 170.37 313.5 152.06 281.79 170.08"/><polyline class="cls-2" points="250.07 224.42 250.07 261.04 281.79 279.35 345.21 279.35 376.93 261.04 376.93 224.42"/><polyline class="cls-2" points="376.93 225 376.93 188.38 345.21 170.07"/><polyline class="cls-2" points="281.79 170.08 250.07 188.09 250.07 224.42"/><polyline class="cls-2" points="345.21 279.05 313.5 297.36 281.79 279.35"/><circle class="cls-3" cx="313.5" cy="297.56" r="2.54"/><circle class="cls-3" cx="281.79" cy="243.5" r="2.54"/><circle class="cls-3" cx="281.79" cy="280.13" r="2.54"/><circle class="cls-3" cx="345.21" cy="280.13" r="2.54"/><circle class="cls-3" cx="250.07" cy="261.82" r="2.54"/><circle class="cls-3" cx="250.07" cy="225.19" r="2.54"/><circle class="cls-3" cx="376.93" cy="225.19" r="2.54"/><circle class="cls-3" cx="376.93" cy="188.58" r="2.54"/><circle class="cls-3" cx="250.07" cy="188.58" r="2.54"/><circle class="cls-3" cx="313.5" cy="152.25" r="2.54"/><circle class="cls-3" cx="345.21" cy="170.27" r="2.54"/><circle class="cls-3" cx="281.79" cy="170.27" r="2.54"/><circle class="cls-3" cx="376.93" cy="261.82" r="2.54"/><circle class="cls-3" cx="345.21" cy="243.5" r="2.54"/><circle class="cls-3" cx="313.5" cy="188.57" r="2.54"/></g><g class="cls-4"><polyline class="cls-5" points="218.35 225.43 265.93 252.9 361.07 252.9 408.64 225.43"/><polyline class="cls-5" points="218.35 225.43 265.93 252.9 361.07 252.9 408.64 225.43"/><line class="cls-5" x1="313.5" y1="170.51" x2="265.93" y2="143.05"/><line class="cls-5" x1="361.07" y1="306.95" x2="361.07" y2="252.47"/><line class="cls-5" x1="361.07" y1="252.47" x2="313.5" y2="170.51"/><polyline class="cls-5" points="265.93 306.95 265.93 252.47 313.5 170.51 361.07 143.04"/><polyline class="cls-5" points="265.93 306.95 218.35 279.93 218.35 225.44 265.93 143.49 313.5 116.02 361.07 143.04"/><polyline class="cls-5" points="361.07 306.95 408.64 279.93 408.64 225.44 361.07 143.49 313.5 116.02 265.93 143.04"/><polyline class="cls-5" points="218.35 224.56 218.35 279.49 265.93 306.95 361.07 306.95 408.64 279.49 408.64 224.56"/><polyline class="cls-5" points="408.64 225.43 408.64 170.5 361.07 143.03"/><polyline class="cls-5" points="265.93 143.04 218.35 170.07 218.35 224.56"/><polyline class="cls-5" points="361.07 306.51 313.5 333.98 265.93 306.95"/><circle class="cls-3" cx="313.5" cy="333.98" r="2.54"/><circle class="cls-3" cx="265.93" cy="252.9" r="2.54"/><circle class="cls-3" cx="265.93" cy="307.83" r="2.54"/><circle class="cls-3" cx="361.07" cy="307.83" r="2.54"/><circle class="cls-3" cx="218.36" cy="280.36" r="2.54"/><circle class="cls-3" cx="218.36" cy="225.43" r="2.54"/><circle class="cls-3" cx="408.64" cy="225.43" r="2.54"/><circle class="cls-3" cx="408.64" cy="170.51" r="2.54"/><circle class="cls-3" cx="218.36" cy="170.51" r="2.54"/><circle class="cls-3" cx="313.5" cy="116.02" r="2.54"/><circle class="cls-3" cx="361.07" cy="143.05" r="2.54"/><circle class="cls-3" cx="265.93" cy="143.05" r="2.54"/><circle class="cls-3" cx="408.64" cy="280.36" r="2.54"/><circle class="cls-3" cx="361.07" cy="252.9" r="2.54"/><circle class="cls-3" cx="313.5" cy="170.5" r="2.54"/></g><path class="cls-6" d="M313.5,341.2v34.12m-5.38-8.13,5.38,8.13,5.38-8.13m-5.38,33v41.34m-5.38-8.13,5.38,8.13,5.38-8.13M313.5,107.73v-33m5.38,8.13-5.38-8.13-5.38,8.13m5.38-33V8.46m5.38,8.13L313.5,8.46l-5.38,8.13m105.8,266.79,29.54,17.17m-9.74.57,9.74-.57-4.33-8.74M465,313.06l35.75,20.78m-9.75.56,9.75-.56-4.33-8.75M212.52,166.29l-29-16.84m9.74-.57-9.74.57,4.33,8.74m-61.58-42L162,136.94M136,115.6l-9.75.56,4.33,8.75m283.3,42,29.72-17.19m-4.35,8.73,4.35-8.73-9.74-.59m31.27-11.86L501,116.62m-4.35,8.73,4.35-8.73-9.74-.59M212.52,283.38l-29.16,16.86m4.35-8.73-4.35,8.73,9.74.59m-31.27,11.86L126,333.38m4.35-8.73L126,333.38l9.74.59"/><path class="cls-7" d="M456.22,225.65l-71.36,41.2H242.14l-71.36-41.2m0,0,71.36,41.2H384.86l71.36-41.2M242.14,102.07l71.36,41.2m71.36,204.66V266.2m0,0L313.5,143.27m71.36-41.2-71.36,41.2L242.14,266.2v81.73M384.86,102.07,313.5,61.53l-71.36,41.2L170.78,225.66V307.4l71.36,40.53m142.72,0,71.36-40.53V225.66L384.86,102.73,313.5,61.53l-71.36,40.54M170.78,224.34v82.39l71.36,41.2H384.86l71.36-41.2V224.34m0,1.31v-82.4l-71.36-41.2m-142.72,0L170.78,142.6v81.74m71.36,123.59,71.36,40.54,71.36-41.2"/><circle class="cls-3" cx="313.5" cy="388.47" r="4.58"/><circle class="cls-3" cx="242.14" cy="266.85" r="4.58"/><circle class="cls-3" cx="242.14" cy="349.24" r="4.58"/><circle class="cls-3" cx="384.86" cy="349.24" r="4.58"/><circle class="cls-3" cx="170.78" cy="308.05" r="4.58"/><circle class="cls-3" cx="170.78" cy="225.65" r="4.58"/><circle class="cls-3" cx="456.22" cy="225.65" r="4.58"/><circle class="cls-3" cx="456.22" cy="143.27" r="4.58"/><circle class="cls-3" cx="170.78" cy="143.27" r="4.58"/><circle class="cls-3" cx="313.5" cy="61.53" r="4.58"/><circle class="cls-3" cx="384.86" cy="102.07" r="4.58"/><circle class="cls-3" cx="242.14" cy="102.07" r="4.58"/><circle class="cls-3" cx="456.22" cy="308.05" r="4.58"/><circle class="cls-3" cx="384.86" cy="266.85" r="4.58"/><circle class="cls-3" cx="313.5" cy="143.25" r="4.58"/></g></svg>