<svg id="NETWORK" xmlns="http://www.w3.org/2000/svg" xmlns:xlink="http://www.w3.org/1999/xlink" viewBox="0 0 627 450"><defs><style>.cls-1{fill:#2b3d7c;}.cls-2,.cls-26{fill:#fff;}.cls-2{stroke:#000;stroke-miterlimit:10;}.cls-3{fill:url(#linear-gradient);}.cls-4{fill:url(#linear-gradient-2);}.cls-5{fill:url(#linear-gradient-3);}.cls-6{fill:url(#linear-gradient-4);}.cls-7{fill:url(#linear-gradient-5);}.cls-8{fill:url(#linear-gradient-6);}.cls-9{fill:url(#linear-gradient-7);}.cls-10{fill:url(#linear-gradient-8);}.cls-11{fill:url(#linear-gradient-9);}.cls-12{fill:url(#linear-gradient-10);}.cls-13{fill:url(#linear-gradient-11);}.cls-14{fill:url(#linear-gradient-12);}.cls-15{fill:url(#linear-gradient-13);}.cls-16{fill:url(#linear-gradient-14);}.cls-17{fill:url(#linear-gradient-15);}.cls-18{fill:url(#linear-gradient-16);}.cls-19{fill:url(#linear-gradient-17);}.cls-20{fill:url(#linear-gradient-18);}.cls-21{fill:url(#linear-gradient-19);}.cls-22{fill:url(#linear-gradient-20);}.cls-23{fill:url(#linear-gradient-21);}.cls-24{fill:url(#linear-gradient-22);}.cls-25{fill:url(#linear-gradient-23);}.cls-27{fill:#e01974;}.cls-28{fill:url(#linear-gradient-24);}.cls-29{fill:url(#linear-gradient-25);}.cls-30{fill:url(#linear-gradient-26);}.cls-31{fill:url(#linear-gradient-27);}.cls-32{fill:url(#linear-gradient-28);}.cls-33{fill:url(#linear-gradient-29);}.cls-34{fill:url(#linear-gradient-30);}.cls-35{fill:url(#linear-gradient-31);}.cls-36{fill:url(#linear-gradient-32);}.cls-37{fill:url(#linear-gradient-33);}.cls-38{fill:url(#linear-gradient-34);}.cls-39{fill:url(#linear-gradient-35);}.cls-40{fill:url(#linear-gradient-36);}.cls-41{fill:url(#linear-gradient-37);}.cls-42{fill:url(#linear-gradient-38);}.cls-43{fill:url(#linear-gradient-39);}.cls-44{fill:url(#linear-gradient-40);}.cls-45{fill:url(#linear-gradient-41);}.cls-46{fill:url(#linear-gradient-42);}.cls-47{fill:url(#linear-gradient-43);}.cls-48{fill:url(#linear-gradient-44);}.cls-49{fill:url(#linear-gradient-45);}.cls-50{fill:url(#linear-gradient-46);}</style><linearGradient id="linear-gradient" x1="180.51" y1="134.63" x2="395.76" y2="-80.63" gradientUnits="userSpaceOnUse"><stop offset="0" stop-color="#00adec"/><stop offset="1" stop-color="#62fbbc"/></linearGradient><linearGradient id="linear-gradient-2" x1="180.51" y1="152.63" x2="395.76" y2="-62.63" xlink:href="#linear-gradient"/><linearGradient id="linear-gradient-3" x1="180.51" y1="170.63" x2="395.76" y2="-44.63" xlink:href="#linear-gradient"/><linearGradient id="linear-gradient-4" x1="180.51" y1="188.63" x2="395.76" y2="-26.63" xlink:href="#linear-gradient"/><linearGradient id="linear-gradient-5" x1="180.51" y1="206.63" x2="395.76" y2="-8.63" xlink:href="#linear-gradient"/><linearGradient id="linear-gradient-6" x1="180.51" y1="224.63" x2="395.76" y2="9.37" xlink:href="#linear-gradient"/><linearGradient id="linear-gradient-7" x1="180.51" y1="242.63" x2="395.76" y2="27.37" xlink:href="#linear-gradient"/><linearGradient id="linear-gradient-8" x1="180.51" y1="260.63" x2="395.76" y2="45.37" xlink:href="#linear-gradient"/><linearGradient id="linear-gradient-9" x1="180.51" y1="278.63" x2="395.76" y2="63.37" xlink:href="#linear-gradient"/><linearGradient id="linear-gradient-10" x1="180.51" y1="296.63" x2="395.76" y2="81.37" xlink:href="#linear-gradient"/><linearGradient id="linear-gradient-11" x1="180.51" y1="314.63" x2="395.76" y2="99.37" xlink:href="#linear-gradient"/><linearGradient id="linear-gradient-12" x1="180.51" y1="332.63" x2="395.76" y2="117.37" xlink:href="#linear-gradient"/><linearGradient id="linear-gradient-13" x1="179.63" y1="350.92" x2="395.47" y2="135.08" xlink:href="#linear-gradient"/><linearGradient id="linear-gradient-14" x1="179.63" y1="368.92" x2="395.47" y2="153.08" xlink:href="#linear-gradient"/><linearGradient id="linear-gradient-15" x1="179.63" y1="386.92" x2="395.47" y2="171.08" xlink:href="#linear-gradient"/><linearGradient id="linear-gradient-16" x1="179.63" y1="404.92" x2="395.47" y2="189.08" xlink:href="#linear-gradient"/><linearGradient id="linear-gradient-17" x1="179.63" y1="422.92" x2="395.47" y2="207.08" xlink:href="#linear-gradient"/><linearGradient id="linear-gradient-18" x1="179.63" y1="440.92" x2="395.47" y2="225.08" xlink:href="#linear-gradient"/><linearGradient id="linear-gradient-19" x1="179.63" y1="458.92" x2="395.47" y2="243.08" xlink:href="#linear-gradient"/><linearGradient id="linear-gradient-20" x1="179.63" y1="476.92" x2="395.47" y2="261.08" xlink:href="#linear-gradient"/><linearGradient id="linear-gradient-21" x1="179.63" y1="494.92" x2="395.47" y2="279.08" xlink:href="#linear-gradient"/><linearGradient id="linear-gradient-22" x1="179.63" y1="512.92" x2="395.47" y2="297.08" xlink:href="#linear-gradient"/><linearGradient id="linear-gradient-23" x1="179.63" y1="530.92" x2="395.47" y2="315.08" xlink:href="#linear-gradient"/><linearGradient id="linear-gradient-24" x1="-186.67" y1="659.16" x2="58.2" y2="414.29" gradientUnits="userSpaceOnUse"><stop offset="0.05" stop-color="#00adec" stop-opacity="0"/><stop offset="0.37" stop-color="#00adec"/><stop offset="1" stop-color="#62fbbc"/></linearGradient><linearGradient id="linear-gradient-25" x1="-186.67" y1="641.16" x2="58.2" y2="396.29" xlink:href="#linear-gradient-24"/><linearGradient id="linear-gradient-26" x1="-186.67" y1="623.16" x2="58.2" y2="378.29" xlink:href="#linear-gradient-24"/><linearGradient id="linear-gradient-27" x1="-186.67" y1="605.16" x2="58.2" y2="360.29" xlink:href="#linear-gradient-24"/><linearGradient id="linear-gradient-28" x1="-186.67" y1="587.16" x2="58.2" y2="342.29" xlink:href="#linear-gradient-24"/><linearGradient id="linear-gradient-29" x1="-186.67" y1="569.16" x2="58.2" y2="324.29" xlink:href="#linear-gradient-24"/><linearGradient id="linear-gradient-30" x1="-186.67" y1="551.16" x2="58.2" y2="306.29" xlink:href="#linear-gradient-24"/><linearGradient id="linear-gradient-31" x1="-186.67" y1="533.16" x2="58.2" y2="288.29" xlink:href="#linear-gradient-24"/><linearGradient id="linear-gradient-32" x1="-186.67" y1="515.16" x2="58.2" y2="270.29" xlink:href="#linear-gradient-24"/><linearGradient id="linear-gradient-33" x1="-186.67" y1="497.16" x2="58.2" y2="252.29" xlink:href="#linear-gradient-24"/><linearGradient id="linear-gradient-34" x1="-186.67" y1="479.16" x2="58.2" y2="234.29" xlink:href="#linear-gradient-24"/><linearGradient id="linear-gradient-35" x1="-186.67" y1="461.16" x2="58.2" y2="216.29" xlink:href="#linear-gradient-24"/><linearGradient id="linear-gradient-36" x1="-186.67" y1="443.16" x2="58.2" y2="198.29" xlink:href="#linear-gradient-24"/><linearGradient id="linear-gradient-37" x1="-186.67" y1="425.16" x2="58.2" y2="180.29" xlink:href="#linear-gradient-24"/><linearGradient id="linear-gradient-38" x1="-186.67" y1="407.16" x2="58.2" y2="162.29" xlink:href="#linear-gradient-24"/><linearGradient id="linear-gradient-39" x1="-186.67" y1="389.16" x2="58.2" y2="144.29" xlink:href="#linear-gradient-24"/><linearGradient id="linear-gradient-40" x1="-186.67" y1="371.16" x2="58.2" y2="126.29" xlink:href="#linear-gradient-24"/><linearGradient id="linear-gradient-41" x1="-186.67" y1="353.16" x2="58.2" y2="108.29" xlink:href="#linear-gradient-24"/><linearGradient id="linear-gradient-42" x1="-186.67" y1="335.16" x2="58.2" y2="90.29" xlink:href="#linear-gradient-24"/><linearGradient id="linear-gradient-43" x1="-186.67" y1="317.16" x2="58.2" y2="72.29" xlink:href="#linear-gradient-24"/><linearGradient id="linear-gradient-44" x1="-186.67" y1="299.16" x2="58.2" y2="54.29" xlink:href="#linear-gradient-24"/><linearGradient id="linear-gradient-45" x1="-186.67" y1="281.16" x2="58.2" y2="36.29" xlink:href="#linear-gradient-24"/><linearGradient id="linear-gradient-46" x1="-186.67" y1="263.16" x2="58.2" y2="18.29" xlink:href="#linear-gradient-24"/></defs><title>harmony-technology-networking</title><path class="cls-1" d="M586.53,99.88h-3.37A11.14,11.14,0,0,1,572,88.22a11.26,11.26,0,0,1,11.4-10.59h2.09V59.38h-25V92.13a7.76,7.76,0,0,1-7.75,7.75h-3.37a11.14,11.14,0,0,1-11.12-11.66,11.26,11.26,0,0,1,11.4-10.59h2.09V49.31a5.44,5.44,0,0,1,5.43-5.43h31.64a5.44,5.44,0,0,1,5.43,5.43V92.13A7.76,7.76,0,0,1,586.53,99.88Zm-3.09-20.25a9.27,9.27,0,0,0-9.4,8.68,9.13,9.13,0,0,0,9.12,9.57h3.37a5.76,5.76,0,0,0,5.75-5.75V49.31a3.44,3.44,0,0,0-3.43-3.43H557.21a3.44,3.44,0,0,0-3.43,3.43V78.63a1,1,0,0,1-1,1h-3.09a9.27,9.27,0,0,0-9.4,8.68,9.13,9.13,0,0,0,9.12,9.57h3.37a5.76,5.76,0,0,0,5.75-5.75V58.38a1,1,0,0,1,1-1h27a1,1,0,0,1,1,1V78.63a1,1,0,0,1-1,1Z"/><path class="cls-1" d="M602.78,248.5h-73a5,5,0,0,1-5-5v-46a5,5,0,0,1,5-5h73a5,5,0,0,1,5,5v46A5,5,0,0,1,602.78,248.5Zm-73-54a3,3,0,0,0-3,3v46a3,3,0,0,0,3,3h73a3,3,0,0,0,3-3v-46a3,3,0,0,0-3-3ZM556.16,235a1,1,0,0,1-.48-.12,1,1,0,0,1-.52-.88V207a1,1,0,0,1,.52-.88,1,1,0,0,1,1,0L577,219.67a1,1,0,0,1,0,1.66l-20.25,13.5A1,1,0,0,1,556.16,235Zm1-26.13v23.26L574.6,220.5Z"/><path class="cls-1" d="M586.53,397.12H546a1,1,0,0,1-1-1v-54a1,1,0,0,1,1-1h27.23a1,1,0,0,1,.47.27h0l13.5,13.5h0a1.14,1.14,0,0,1,.25.44h0a.5.5,0,0,1,0,.12h0a.53.53,0,0,1,0,.13v40.49A1,1,0,0,1,586.53,397.12Zm-39.5-2h38.5v-38.5H573a1,1,0,0,1-1-1v-12.5H547Zm27-40.5h10.09L574,344.53Z"/><circle class="cls-2" cx="165.73" cy="108" r="22.82"/><circle class="cls-2" cx="165.73" cy="108" r="22.82"/><path class="cls-3" d="M502.46,26.4a3.05,3.05,0,0,0-.13-.32.75.75,0,0,1-.07-.12,2.42,2.42,0,0,0-.27-.36h0a1.82,1.82,0,0,0-.38-.29l0,0-7.79-4.5a2,2,0,0,0-2,3.46l1.33.77H209.41a25.34,25.34,0,0,1-7.92-1.27l-8.15-2.67a29.42,29.42,0,0,0-9.17-1.46H147.3a29.48,29.48,0,0,0-9.18,1.46L130,23.73A25.39,25.39,0,0,1,122.06,25H75.72a2,2,0,0,0,0,4h46.34a29.19,29.19,0,0,0,9.17-1.47l8.14-2.67a25.69,25.69,0,0,1,7.93-1.26h36.87a25.74,25.74,0,0,1,7.93,1.26l8.14,2.67A29.19,29.19,0,0,0,209.41,29H493.1l-1.33.77a2,2,0,0,0,1,3.73,2,2,0,0,0,1-.27l7.79-4.5,0,0a1.82,1.82,0,0,0,.38-.29h0a2.42,2.42,0,0,0,.27-.36.75.75,0,0,1,.07-.12,3.05,3.05,0,0,0,.13-.32s0-.08,0-.13a1.84,1.84,0,0,0,.06-.47,2,2,0,0,0-.06-.48S502.47,26.44,502.46,26.4Z"/><path class="cls-4" d="M502.46,44.4a3.05,3.05,0,0,0-.13-.32.75.75,0,0,1-.07-.12,2.42,2.42,0,0,0-.27-.36h0a1.82,1.82,0,0,0-.38-.29l0,0-7.79-4.5a2,2,0,0,0-2,3.46l1.33.77H213.22a25.35,25.35,0,0,1-13.95-4.17L196.5,37a29.39,29.39,0,0,0-16.14-4.82H151.11A29.42,29.42,0,0,0,135,37l-2.77,1.81A25.32,25.32,0,0,1,118.25,43H75.72a2,2,0,0,0,0,4h42.53a29.39,29.39,0,0,0,16.14-4.82l2.77-1.82a25.4,25.4,0,0,1,14-4.16h29.25a25.42,25.42,0,0,1,13.95,4.16l2.77,1.82A29.39,29.39,0,0,0,213.22,47H493.1l-1.33.77a2,2,0,0,0,1,3.73,2,2,0,0,0,1-.27l7.79-4.5,0,0a1.82,1.82,0,0,0,.38-.29h0a2.42,2.42,0,0,0,.27-.36.75.75,0,0,1,.07-.12,3.05,3.05,0,0,0,.13-.32s0-.08,0-.13a1.84,1.84,0,0,0,.06-.47,2,2,0,0,0-.06-.48S502.47,44.44,502.46,44.4Z"/><path class="cls-5" d="M502.46,62.4a3.05,3.05,0,0,0-.13-.32.75.75,0,0,1-.07-.12,2.42,2.42,0,0,0-.27-.36h0a1.82,1.82,0,0,0-.38-.29l0,0-7.79-4.5a2,2,0,0,0-2,3.46l1.33.77H216.26a25.29,25.29,0,0,1-17.84-7.3l-.46-.45a29.26,29.26,0,0,0-20.64-8.45H154.15a29.27,29.27,0,0,0-20.65,8.45l-.46.45A25.26,25.26,0,0,1,115.21,61H75.72a2,2,0,0,0,0,4h39.49a29.26,29.26,0,0,0,20.64-8.45l.46-.45a25.27,25.27,0,0,1,17.84-7.3h23.17a25.29,25.29,0,0,1,17.84,7.3l.46.45A29.26,29.26,0,0,0,216.26,65H493.1l-1.33.77a2,2,0,0,0,1,3.73,2,2,0,0,0,1-.27l7.79-4.5,0,0a1.82,1.82,0,0,0,.38-.29h0a2.42,2.42,0,0,0,.27-.36.75.75,0,0,1,.07-.12,3.05,3.05,0,0,0,.13-.32s0-.08,0-.13a1.84,1.84,0,0,0,.06-.47,2,2,0,0,0-.06-.48S502.47,62.44,502.46,62.4Z"/><path class="cls-6" d="M502.46,80.4a3.05,3.05,0,0,0-.13-.32.75.75,0,0,1-.07-.12,2.42,2.42,0,0,0-.27-.36h0a1.82,1.82,0,0,0-.38-.29l0,0-7.79-4.5a2,2,0,0,0-2,3.46l1.33.77H218.61a25.59,25.59,0,0,1-20.23-10A29.59,29.59,0,0,0,175,57.4H156.5A29.62,29.62,0,0,0,133.08,69a25.57,25.57,0,0,1-20.22,10H75.72a2,2,0,0,0,0,4h37.14a29.62,29.62,0,0,0,23.41-11.59,25.58,25.58,0,0,1,20.23-10H175a25.58,25.58,0,0,1,20.23,10A29.6,29.6,0,0,0,218.61,83H493.1l-1.33.77a2,2,0,0,0,1,3.73,2,2,0,0,0,1-.27l7.79-4.5,0,0a1.82,1.82,0,0,0,.38-.29h0a2.42,2.42,0,0,0,.27-.36.75.75,0,0,1,.07-.12,3.05,3.05,0,0,0,.13-.32s0-.08,0-.13a1.84,1.84,0,0,0,.06-.47,2,2,0,0,0-.06-.48S502.47,80.44,502.46,80.4Z"/><path class="cls-7" d="M502.46,98.4a3.05,3.05,0,0,0-.13-.32.75.75,0,0,1-.07-.12,2.42,2.42,0,0,0-.27-.36h0a1.82,1.82,0,0,0-.38-.29l0,0-7.79-4.5a2,2,0,0,0-2,3.46l1.33.77H220.43a25.6,25.6,0,0,1-21.72-12.19l-.43-.7A29.63,29.63,0,0,0,173.15,70H158.32a29.63,29.63,0,0,0-25.14,14.11l-.43.7A25.58,25.58,0,0,1,111,97H75.72a2,2,0,0,0,0,4H111a29.63,29.63,0,0,0,25.13-14.11l.43-.7A25.6,25.6,0,0,1,158.32,74h14.83a25.6,25.6,0,0,1,21.72,12.19l.43.7A29.63,29.63,0,0,0,220.43,101H493.1l-1.33.77a2,2,0,0,0,1,3.73,2,2,0,0,0,1-.27l7.79-4.5,0,0a1.82,1.82,0,0,0,.38-.29h0a2.42,2.42,0,0,0,.27-.36.75.75,0,0,1,.07-.12,3.05,3.05,0,0,0,.13-.32s0-.08,0-.13a1.84,1.84,0,0,0,.06-.47,2,2,0,0,0-.06-.48S502.47,98.44,502.46,98.4Z"/><path class="cls-8" d="M502.46,116.4a3.05,3.05,0,0,0-.13-.32.75.75,0,0,1-.07-.12,2.42,2.42,0,0,0-.27-.36h0a1.82,1.82,0,0,0-.38-.29l0,0-7.79-4.5a2,2,0,0,0-2,3.46l1.33.77H220.43a29.63,29.63,0,0,0-25.13,14.11l-.43.7A25.6,25.6,0,0,1,173.15,142H158.32a25.6,25.6,0,0,1-21.72-12.19l-.43-.7A29.63,29.63,0,0,0,111,115H75.72a2,2,0,0,0,0,4H111a25.58,25.58,0,0,1,21.71,12.19l.43.7A29.63,29.63,0,0,0,158.32,146h14.83a29.63,29.63,0,0,0,25.13-14.11l.43-.7A25.6,25.6,0,0,1,220.43,119H493.1l-1.33.77a2,2,0,0,0,1,3.73,2,2,0,0,0,1-.27l7.79-4.5,0,0a1.82,1.82,0,0,0,.38-.29h0a2.42,2.42,0,0,0,.27-.36.75.75,0,0,1,.07-.12,3.05,3.05,0,0,0,.13-.32s0-.08,0-.13a1.84,1.84,0,0,0,.06-.47,2,2,0,0,0-.06-.48S502.47,116.44,502.46,116.4Z"/><path class="cls-9" d="M502.46,134.4a3.05,3.05,0,0,0-.13-.32.75.75,0,0,1-.07-.12,2.42,2.42,0,0,0-.27-.36h0a1.82,1.82,0,0,0-.38-.29l0,0-7.79-4.5a2,2,0,0,0-2,3.46l1.33.77H424.7a25.41,25.41,0,0,1-7.93-1.27l-8.14-2.67a29.47,29.47,0,0,0-9.17-1.46H362.58a29.47,29.47,0,0,0-9.17,1.46l-8.14,2.67a25.45,25.45,0,0,1-7.93,1.27H218.61a29.6,29.6,0,0,0-23.41,11.59,25.58,25.58,0,0,1-20.23,10H156.5a25.58,25.58,0,0,1-20.23-10A29.62,29.62,0,0,0,112.86,133H75.72a2,2,0,0,0,0,4h37.14a25.6,25.6,0,0,1,20.23,10A29.59,29.59,0,0,0,156.5,158.6H175A29.59,29.59,0,0,0,198.38,147a25.59,25.59,0,0,1,20.23-10H337.34a29.14,29.14,0,0,0,9.17-1.47l8.15-2.66a25.39,25.39,0,0,1,7.92-1.27h36.88a25.39,25.39,0,0,1,7.92,1.27l8.15,2.66A29.14,29.14,0,0,0,424.7,137h68.4l-1.33.77a2,2,0,0,0,1,3.73,2,2,0,0,0,1-.27l7.79-4.5,0,0a1.82,1.82,0,0,0,.38-.29h0a2.42,2.42,0,0,0,.27-.36.75.75,0,0,1,.07-.12,3.05,3.05,0,0,0,.13-.32s0-.08,0-.13a1.84,1.84,0,0,0,.06-.47,2,2,0,0,0-.06-.48S502.47,134.44,502.46,134.4Z"/><path class="cls-10" d="M502.46,152.4a3.05,3.05,0,0,0-.13-.32.75.75,0,0,1-.07-.12,2.42,2.42,0,0,0-.27-.36h0a1.82,1.82,0,0,0-.38-.29l0,0-7.79-4.5a2,2,0,0,0-2,3.46l1.33.77H428.51a25.4,25.4,0,0,1-13.95-4.16L411.79,145a29.39,29.39,0,0,0-16.14-4.82H366.39A29.39,29.39,0,0,0,350.25,145l-2.77,1.82a25.4,25.4,0,0,1-14,4.16H216.26a29.26,29.26,0,0,0-20.64,8.45l-.46.45a25.29,25.29,0,0,1-17.84,7.3H154.15a25.27,25.27,0,0,1-17.84-7.3l-.46-.45A29.26,29.26,0,0,0,115.21,151H75.72a2,2,0,0,0,0,4h39.49A25.26,25.26,0,0,1,133,162.3l.46.45a29.27,29.27,0,0,0,20.65,8.45h23.17A29.26,29.26,0,0,0,198,162.75l.46-.45a25.29,25.29,0,0,1,17.84-7.3H333.53a29.39,29.39,0,0,0,16.14-4.82l2.77-1.82a25.42,25.42,0,0,1,13.95-4.16h29.26a25.36,25.36,0,0,1,13.94,4.16l2.78,1.82A29.36,29.36,0,0,0,428.51,155H493.1l-1.33.77a2,2,0,0,0,1,3.73,2,2,0,0,0,1-.27l7.79-4.5,0,0a1.82,1.82,0,0,0,.38-.29h0a2.42,2.42,0,0,0,.27-.36.75.75,0,0,1,.07-.12,3.05,3.05,0,0,0,.13-.32s0-.08,0-.13a1.84,1.84,0,0,0,.06-.47,2,2,0,0,0-.06-.48S502.47,152.44,502.46,152.4Z"/><path class="cls-11" d="M502.46,170.4a3.05,3.05,0,0,0-.13-.32.75.75,0,0,1-.07-.12,2.42,2.42,0,0,0-.27-.36h0a1.82,1.82,0,0,0-.38-.29l0,0-7.79-4.5a2,2,0,0,0-2,3.46l1.33.77H431.55a25.29,25.29,0,0,1-17.84-7.3l-.46-.45a29.26,29.26,0,0,0-20.64-8.45H369.43a29.26,29.26,0,0,0-20.64,8.45l-.46.45a25.29,25.29,0,0,1-17.84,7.3H213.22a29.39,29.39,0,0,0-16.14,4.82l-2.77,1.82a25.42,25.42,0,0,1-13.95,4.16H151.11a25.4,25.4,0,0,1-14-4.16l-2.77-1.82A29.39,29.39,0,0,0,118.25,169H75.72a2,2,0,0,0,0,4h42.53a25.39,25.39,0,0,1,13.94,4.16L135,179a29.42,29.42,0,0,0,16.15,4.82h29.25A29.39,29.39,0,0,0,196.5,179l2.77-1.82A25.42,25.42,0,0,1,213.22,173H330.49a29.3,29.3,0,0,0,20.65-8.45l.45-.45a25.3,25.3,0,0,1,17.84-7.3h23.18a25.3,25.3,0,0,1,17.84,7.3l.45.45A29.27,29.27,0,0,0,431.55,173H493.1l-1.33.77a2,2,0,0,0,1,3.73,2,2,0,0,0,1-.27l7.79-4.5,0,0a1.82,1.82,0,0,0,.38-.29h0a2.42,2.42,0,0,0,.27-.36.75.75,0,0,1,.07-.12,3.05,3.05,0,0,0,.13-.32s0-.08,0-.13a1.84,1.84,0,0,0,.06-.47,2,2,0,0,0-.06-.48S502.47,170.44,502.46,170.4Z"/><path class="cls-12" d="M502.46,188.4a3.05,3.05,0,0,0-.13-.32.75.75,0,0,1-.07-.12,2.42,2.42,0,0,0-.27-.36h0a1.82,1.82,0,0,0-.38-.29l0,0-7.79-4.5a2,2,0,0,0-2,3.46l1.33.77H433.9a25.58,25.58,0,0,1-20.23-10,29.62,29.62,0,0,0-23.41-11.59H371.78A29.62,29.62,0,0,0,348.37,177a25.58,25.58,0,0,1-20.23,10H209.41a29.47,29.47,0,0,0-9.17,1.46l-8.14,2.67a25.45,25.45,0,0,1-7.93,1.27H147.3a25.41,25.41,0,0,1-7.93-1.27l-8.14-2.67a29.47,29.47,0,0,0-9.17-1.46H75.72a2,2,0,0,0,0,4h46.34a25.39,25.39,0,0,1,7.92,1.27l8.14,2.67a29.48,29.48,0,0,0,9.18,1.46h36.87a29.42,29.42,0,0,0,9.17-1.46l8.15-2.67a25.34,25.34,0,0,1,7.92-1.27H328.14a29.59,29.59,0,0,0,23.41-11.59,25.59,25.59,0,0,1,20.23-10h18.48a25.6,25.6,0,0,1,20.23,10A29.59,29.59,0,0,0,433.9,191h59.2l-1.33.77a2,2,0,0,0,1,3.73,2,2,0,0,0,1-.27l7.79-4.5,0,0a1.82,1.82,0,0,0,.38-.29h0a2.42,2.42,0,0,0,.27-.36.75.75,0,0,1,.07-.12,3.05,3.05,0,0,0,.13-.32s0-.08,0-.13a1.84,1.84,0,0,0,.06-.47,2,2,0,0,0-.06-.48S502.47,188.44,502.46,188.4Z"/><path class="cls-13" d="M502.46,206.4a3.05,3.05,0,0,0-.13-.32.75.75,0,0,1-.07-.12,2.42,2.42,0,0,0-.27-.36h0a1.82,1.82,0,0,0-.38-.29l0,0-7.79-4.5a2,2,0,0,0-2,3.46l1.33.77H435.72A25.6,25.6,0,0,1,414,192.81l-.43-.7A29.63,29.63,0,0,0,388.44,178H373.6a29.63,29.63,0,0,0-25.13,14.11l-.43.7A25.6,25.6,0,0,1,326.32,205H75.72a2,2,0,0,0,0,4h250.6a29.6,29.6,0,0,0,25.13-14.11l.43-.7A25.6,25.6,0,0,1,373.6,182h14.84a25.6,25.6,0,0,1,21.72,12.19l.42.7A29.63,29.63,0,0,0,435.72,209H493.1l-1.33.77a2,2,0,0,0,1,3.73,2,2,0,0,0,1-.27l7.79-4.5,0,0a1.82,1.82,0,0,0,.38-.29h0a2.42,2.42,0,0,0,.27-.36.75.75,0,0,1,.07-.12,3.05,3.05,0,0,0,.13-.32s0-.08,0-.13a1.84,1.84,0,0,0,.06-.47,2,2,0,0,0-.06-.48S502.47,206.44,502.46,206.4Z"/><path class="cls-14" d="M502.46,224.4a3.05,3.05,0,0,0-.13-.32s-.05-.09-.07-.12a1.56,1.56,0,0,0-.27-.35,0,0,0,0,0,0,0,2.06,2.06,0,0,0-.37-.29l-.05,0-7.79-4.5a2,2,0,0,0-2,3.46l1.33.77H435.72a29.63,29.63,0,0,0-25.14,14.11l-.42.7A25.6,25.6,0,0,1,388.44,250H373.6a25.6,25.6,0,0,1-21.72-12.19l-.43-.7A29.6,29.6,0,0,0,326.32,223H75.72a2,2,0,0,0,0,4h250.6A25.6,25.6,0,0,1,348,239.19l.43.7A29.63,29.63,0,0,0,373.6,254h14.84a29.63,29.63,0,0,0,25.13-14.11l.43-.7A25.6,25.6,0,0,1,435.72,227H493.1l-1.33.77a2,2,0,0,0,1,3.73,2,2,0,0,0,1-.27l7.79-4.5.05,0a2.06,2.06,0,0,0,.37-.29,0,0,0,0,0,0,0,1.91,1.91,0,0,0,.27-.35.75.75,0,0,1,.07-.12,3.05,3.05,0,0,0,.13-.32s0-.08,0-.13a1.87,1.87,0,0,0,0-.94C502.49,224.48,502.47,224.44,502.46,224.4Z"/><path class="cls-15" d="M502.46,242.4a3.05,3.05,0,0,0-.13-.32s-.05-.09-.07-.12a1.56,1.56,0,0,0-.27-.35,0,0,0,0,0,0,0,2.06,2.06,0,0,0-.37-.29l-.05,0-7.79-4.5a2,2,0,0,0-2,3.46l1.33.77H433.9a29.59,29.59,0,0,0-23.41,11.59,25.59,25.59,0,0,1-20.23,10H371.78a25.59,25.59,0,0,1-20.23-10A29.59,29.59,0,0,0,328.14,241H74.53a2,2,0,1,0,0,4H328.14a25.58,25.58,0,0,1,20.23,10,29.62,29.62,0,0,0,23.41,11.59h18.48A29.62,29.62,0,0,0,413.67,255a25.58,25.58,0,0,1,20.23-10h59.2l-1.33.77a2,2,0,0,0,1,3.73,2,2,0,0,0,1-.27l7.79-4.5.05,0a2.06,2.06,0,0,0,.37-.29,0,0,0,0,0,0,0,1.91,1.91,0,0,0,.27-.35.75.75,0,0,1,.07-.12,3.05,3.05,0,0,0,.13-.32s0-.08,0-.13a1.87,1.87,0,0,0,0-.94C502.49,242.48,502.47,242.44,502.46,242.4Z"/><path class="cls-16" d="M502.46,260.4a3.05,3.05,0,0,0-.13-.32s-.05-.09-.07-.12a1.56,1.56,0,0,0-.27-.35v0a2.06,2.06,0,0,0-.37-.29l-.05,0-7.79-4.5a2,2,0,0,0-2,3.46l1.33.77H431.55a29.27,29.27,0,0,0-20.65,8.45l-.45.45a25.3,25.3,0,0,1-17.84,7.3H369.43a25.3,25.3,0,0,1-17.84-7.3l-.45-.45A29.3,29.3,0,0,0,330.49,259H310.32a25.34,25.34,0,0,1-7.92-1.27l-8.15-2.67a29.42,29.42,0,0,0-9.17-1.46H248.21a29.48,29.48,0,0,0-9.18,1.46l-8.14,2.67A25.39,25.39,0,0,1,223,259H74.53a2,2,0,1,0,0,4H223a29.19,29.19,0,0,0,9.17-1.47l8.14-2.67a25.69,25.69,0,0,1,7.93-1.26h36.87a25.63,25.63,0,0,1,7.92,1.26l8.15,2.67a29.19,29.19,0,0,0,9.17,1.47h20.17a25.29,25.29,0,0,1,17.84,7.3l.46.45a29.26,29.26,0,0,0,20.64,8.45h23.18a29.26,29.26,0,0,0,20.64-8.45l.46-.45a25.29,25.29,0,0,1,17.84-7.3H493.1l-1.33.77a2,2,0,0,0,1,3.73,2,2,0,0,0,1-.27l7.79-4.5.05,0a2.06,2.06,0,0,0,.37-.29v0a1.91,1.91,0,0,0,.27-.35.75.75,0,0,1,.07-.12,3.05,3.05,0,0,0,.13-.32s0-.08,0-.13a1.87,1.87,0,0,0,0-.94S502.47,260.44,502.46,260.4Z"/><path class="cls-17" d="M502.46,278.4a3.05,3.05,0,0,0-.13-.32s-.05-.09-.07-.12a1.56,1.56,0,0,0-.27-.35v0a2.06,2.06,0,0,0-.37-.29l-.05,0-7.79-4.5a2,2,0,1,0-2,3.46l1.33.77H428.51a29.39,29.39,0,0,0-16.14,4.82l-2.78,1.82a25.36,25.36,0,0,1-13.94,4.16H366.39a25.42,25.42,0,0,1-13.95-4.16l-2.77-1.82A29.39,29.39,0,0,0,333.53,277h-19.4a25.35,25.35,0,0,1-13.95-4.17L297.41,271a29.39,29.39,0,0,0-16.14-4.82H252A29.42,29.42,0,0,0,235.87,271l-2.77,1.81A25.32,25.32,0,0,1,219.15,277H74.53a2,2,0,1,0,0,4H219.15a29.4,29.4,0,0,0,16.15-4.82l2.77-1.82a25.4,25.4,0,0,1,14-4.16h29.25a25.42,25.42,0,0,1,14,4.16l2.77,1.82A29.39,29.39,0,0,0,314.13,281h19.4a25.42,25.42,0,0,1,14,4.16l2.77,1.82a29.39,29.39,0,0,0,16.14,4.82h29.26A29.39,29.39,0,0,0,411.79,287l2.77-1.82A25.4,25.4,0,0,1,428.51,281H493.1l-1.33.77a2,2,0,0,0,1,3.73,2,2,0,0,0,1-.27l7.79-4.5.05,0a2.06,2.06,0,0,0,.37-.29v0a1.91,1.91,0,0,0,.27-.35.75.75,0,0,1,.07-.12,3.05,3.05,0,0,0,.13-.32s0-.08,0-.13a1.87,1.87,0,0,0,0-.94S502.47,278.44,502.46,278.4Z"/><path class="cls-18" d="M502.46,296.4a3.05,3.05,0,0,0-.13-.32s-.05-.09-.07-.12a1.56,1.56,0,0,0-.27-.35v0a2.06,2.06,0,0,0-.37-.29l-.05,0-7.79-4.5a2,2,0,1,0-2,3.46l1.33.77H424.7a29.42,29.42,0,0,0-9.17,1.46l-8.15,2.67a25.39,25.39,0,0,1-7.92,1.27H362.58a25.39,25.39,0,0,1-7.92-1.27l-8.15-2.67a29.42,29.42,0,0,0-9.17-1.46H317.17a25.29,25.29,0,0,1-17.84-7.3l-.46-.45a29.26,29.26,0,0,0-20.64-8.45H255.05a29.26,29.26,0,0,0-20.64,8.45l-.46.45a25.26,25.26,0,0,1-17.83,7.3H74.53a2,2,0,1,0,0,4H216.12a29.26,29.26,0,0,0,20.64-8.45l.46-.45a25.26,25.26,0,0,1,17.83-7.3h23.18a25.29,25.29,0,0,1,17.84,7.3l.46.45A29.26,29.26,0,0,0,317.17,299h20.17a25.45,25.45,0,0,1,7.93,1.27l8.14,2.67a29.47,29.47,0,0,0,9.17,1.46h36.88a29.47,29.47,0,0,0,9.17-1.46l8.14-2.67A25.41,25.41,0,0,1,424.7,299h68.4l-1.33.77a2,2,0,0,0,1,3.73,2,2,0,0,0,1-.27l7.79-4.5.05,0a2.06,2.06,0,0,0,.37-.29v0a1.91,1.91,0,0,0,.27-.35.75.75,0,0,1,.07-.12,3.05,3.05,0,0,0,.13-.32s0-.08,0-.13a1.87,1.87,0,0,0,0-.94S502.47,296.44,502.46,296.4Z"/><path class="cls-19" d="M502.46,314.4a3.05,3.05,0,0,0-.13-.32s-.05-.09-.07-.12a1.56,1.56,0,0,0-.27-.35v0a2.06,2.06,0,0,0-.37-.29l-.05,0-7.79-4.5a2,2,0,1,0-2,3.46l1.33.77H319.52a25.59,25.59,0,0,1-20.23-10,29.6,29.6,0,0,0-23.41-11.59H257.41A29.59,29.59,0,0,0,234,303a25.6,25.6,0,0,1-20.23,10H74.53a2,2,0,1,0,0,4H213.77a29.62,29.62,0,0,0,23.41-11.59,25.58,25.58,0,0,1,20.23-10h18.47a25.58,25.58,0,0,1,20.23,10A29.6,29.6,0,0,0,319.52,317H493.1l-1.33.77a2,2,0,0,0,1,3.73,2,2,0,0,0,1-.27l7.79-4.5.05,0a2.06,2.06,0,0,0,.37-.29v0a1.91,1.91,0,0,0,.27-.35.75.75,0,0,1,.07-.12,3.05,3.05,0,0,0,.13-.32s0-.08,0-.13a1.87,1.87,0,0,0,0-.94S502.47,314.44,502.46,314.4Z"/><path class="cls-20" d="M502.46,332.4a3.05,3.05,0,0,0-.13-.32s-.05-.09-.07-.12a1.56,1.56,0,0,0-.27-.35v0a2.06,2.06,0,0,0-.37-.29l-.05,0-7.79-4.5a2,2,0,1,0-2,3.46l1.33.77H321.34a25.6,25.6,0,0,1-21.72-12.19l-.43-.7A29.63,29.63,0,0,0,274.06,304H259.23a29.63,29.63,0,0,0-25.14,14.11l-.43.7A25.58,25.58,0,0,1,212,331H74.53a2,2,0,1,0,0,4H212a29.63,29.63,0,0,0,25.13-14.11l.43-.7A25.6,25.6,0,0,1,259.23,308h14.83a25.6,25.6,0,0,1,21.72,12.19l.43.7A29.63,29.63,0,0,0,321.34,335H493.1l-1.33.77a2,2,0,0,0,1,3.73,2,2,0,0,0,1-.27l7.79-4.5.05,0a2.06,2.06,0,0,0,.37-.29v0a1.91,1.91,0,0,0,.27-.35.75.75,0,0,1,.07-.12,3.05,3.05,0,0,0,.13-.32s0-.08,0-.13a1.87,1.87,0,0,0,0-.94S502.47,332.44,502.46,332.4Z"/><path class="cls-21" d="M502.46,350.4a3.05,3.05,0,0,0-.13-.32s-.05-.09-.07-.12a1.56,1.56,0,0,0-.27-.35v0a2.06,2.06,0,0,0-.37-.29l-.05,0-7.79-4.5a2,2,0,1,0-2,3.46l1.33.77H321.34a29.63,29.63,0,0,0-25.13,14.11l-.43.7A25.6,25.6,0,0,1,274.06,376H259.23a25.58,25.58,0,0,1-21.72-12.19l-.43-.7A29.63,29.63,0,0,0,212,349H74.53a2,2,0,1,0,0,4H212a25.58,25.58,0,0,1,21.71,12.19l.43.7A29.63,29.63,0,0,0,259.23,380h14.83a29.63,29.63,0,0,0,25.13-14.11l.43-.7A25.6,25.6,0,0,1,321.34,353H493.1l-1.33.77a2,2,0,0,0,1,3.73,2,2,0,0,0,1-.27l7.79-4.5.05,0a2.06,2.06,0,0,0,.37-.29v0a1.91,1.91,0,0,0,.27-.35.75.75,0,0,1,.07-.12,3.05,3.05,0,0,0,.13-.32s0-.08,0-.13a1.87,1.87,0,0,0,0-.94S502.47,350.44,502.46,350.4Z"/><path class="cls-22" d="M502.46,368.4a3.05,3.05,0,0,0-.13-.32s-.05-.09-.07-.12a1.56,1.56,0,0,0-.27-.35v0a2.06,2.06,0,0,0-.37-.29l-.05,0-7.79-4.5a2,2,0,1,0-2,3.46l1.33.77H319.52a29.6,29.6,0,0,0-23.41,11.59,25.58,25.58,0,0,1-20.23,10H257.41a25.58,25.58,0,0,1-20.23-10A29.62,29.62,0,0,0,213.77,367H74.53a2,2,0,1,0,0,4H213.77A25.6,25.6,0,0,1,234,381a29.59,29.59,0,0,0,23.41,11.59h18.47A29.6,29.6,0,0,0,299.29,381a25.58,25.58,0,0,1,20.23-10H493.1l-1.33.77a2,2,0,0,0,1,3.73,2,2,0,0,0,1-.27l7.79-4.5.05,0a2.06,2.06,0,0,0,.37-.29v0a1.91,1.91,0,0,0,.27-.35.75.75,0,0,1,.07-.12,3.05,3.05,0,0,0,.13-.32s0-.08,0-.13a1.87,1.87,0,0,0,0-.94S502.47,368.44,502.46,368.4Z"/><path class="cls-23" d="M502.46,386.4a3.05,3.05,0,0,0-.13-.32s-.05-.09-.07-.12a1.56,1.56,0,0,0-.27-.35v0a2.06,2.06,0,0,0-.37-.29l-.05,0-7.79-4.5a2,2,0,1,0-2,3.46l1.33.77H317.17a29.26,29.26,0,0,0-20.64,8.45l-.46.45a25.29,25.29,0,0,1-17.84,7.3H255.05a25.26,25.26,0,0,1-17.83-7.3l-.46-.45A29.26,29.26,0,0,0,216.12,385H74.53a2,2,0,1,0,0,4H216.12A25.3,25.3,0,0,1,234,396.3l.45.45a29.26,29.26,0,0,0,20.64,8.45h23.18a29.26,29.26,0,0,0,20.64-8.45l.46-.45a25.3,25.3,0,0,1,17.84-7.3H493.1l-1.33.77a2,2,0,0,0,1,3.73,2,2,0,0,0,1-.27l7.79-4.5.05,0a2.06,2.06,0,0,0,.37-.29v0a1.91,1.91,0,0,0,.27-.35.75.75,0,0,1,.07-.12,3.05,3.05,0,0,0,.13-.32s0-.08,0-.13a1.87,1.87,0,0,0,0-.94S502.47,386.44,502.46,386.4Z"/><path class="cls-24" d="M502.46,404.4a3.05,3.05,0,0,0-.13-.32s-.05-.09-.07-.12a1.56,1.56,0,0,0-.27-.35v0a2.06,2.06,0,0,0-.37-.29l-.05,0-7.79-4.5a2,2,0,1,0-2,3.46l1.33.77h-179A29.39,29.39,0,0,0,298,407.82l-2.77,1.82a25.42,25.42,0,0,1-14,4.16H252a25.4,25.4,0,0,1-14-4.16l-2.77-1.82A29.4,29.4,0,0,0,219.15,403H74.53a2,2,0,1,0,0,4H219.15a25.4,25.4,0,0,1,13.95,4.16l2.77,1.82A29.42,29.42,0,0,0,252,417.8h29.25A29.39,29.39,0,0,0,297.41,413l2.77-1.82A25.42,25.42,0,0,1,314.13,407h179l-1.33.77a2,2,0,0,0,1,3.73,2,2,0,0,0,1-.27l7.79-4.5.05,0a2.06,2.06,0,0,0,.37-.29v0a1.91,1.91,0,0,0,.27-.35.75.75,0,0,1,.07-.12,3.05,3.05,0,0,0,.13-.32s0-.08,0-.13a1.87,1.87,0,0,0,0-.94S502.47,404.44,502.46,404.4Z"/><path class="cls-25" d="M502.46,422.4a3.05,3.05,0,0,0-.13-.32s-.05-.09-.07-.12a1.56,1.56,0,0,0-.27-.35v0a2.06,2.06,0,0,0-.37-.29l-.05,0-7.79-4.5a2,2,0,1,0-2,3.46l1.33.77H310.32a29.47,29.47,0,0,0-9.17,1.46L293,425.13a25.34,25.34,0,0,1-7.92,1.27H248.21a25.41,25.41,0,0,1-7.93-1.27l-8.14-2.67A29.47,29.47,0,0,0,223,421H74.53a2,2,0,1,0,0,4H223a25.39,25.39,0,0,1,7.92,1.27l8.14,2.67a29.53,29.53,0,0,0,9.18,1.46h36.87a29.42,29.42,0,0,0,9.17-1.46l8.15-2.67a25.34,25.34,0,0,1,7.92-1.27H493.1l-1.33.77a2,2,0,0,0,1,3.73,2,2,0,0,0,1-.27l7.79-4.5.05,0a2.06,2.06,0,0,0,.37-.29v0a1.91,1.91,0,0,0,.27-.35.75.75,0,0,1,.07-.12,3.05,3.05,0,0,0,.13-.32s0-.08,0-.13a1.87,1.87,0,0,0,0-.94S502.47,422.44,502.46,422.4Z"/><circle class="cls-26" cx="165.73" cy="108" r="23.82"/><path class="cls-27" d="M165.73,85.18A22.82,22.82,0,1,1,142.91,108a22.82,22.82,0,0,1,22.82-22.82m0-2A24.82,24.82,0,1,0,190.55,108a24.85,24.85,0,0,0-24.82-24.82Z"/><g id="_Group_" data-name="&lt;Group&gt;"><path class="cls-27" d="M173.06,90.68H158.4a2.57,2.57,0,0,0-2.56,2.57v3.59a9,9,0,0,0,2.64,6.38l2.23,2.23a3.6,3.6,0,0,1,0,5.1l-2.23,2.23a9,9,0,0,0-2.64,6.38v3.59a2.57,2.57,0,0,0,2.56,2.57h14.66a2.57,2.57,0,0,0,2.57-2.57v-3.59a9,9,0,0,0-2.65-6.38l-2.22-2.23a3.6,3.6,0,0,1,0-5.1l2.22-2.23a9,9,0,0,0,2.65-6.38V93.25A2.57,2.57,0,0,0,173.06,90.68Z"/><path class="cls-26" d="M158.59,98.91v-2a1.28,1.28,0,0,1,1.28-1.28H171.6a1.28,1.28,0,0,1,1.28,1.28v2a1.31,1.31,0,0,1-.38.91l-5.86,5.86a1.28,1.28,0,0,1-1.81,0L159,99.82A1.3,1.3,0,0,1,158.59,98.91Z"/><path class="cls-26" d="M160.78,120.38l4.05-4a1.28,1.28,0,0,1,1.81,0l4.05,4a1.28,1.28,0,0,1-.91,2.19h-8.1A1.28,1.28,0,0,1,160.78,120.38Z"/></g><circle class="cls-26" cx="381.02" cy="216" r="23.82"/><path class="cls-27" d="M381,193.18A22.82,22.82,0,1,1,358.2,216,22.82,22.82,0,0,1,381,193.18m0-2A24.82,24.82,0,1,0,405.84,216,24.84,24.84,0,0,0,381,191.18Z"/><g id="_Group_2" data-name="&lt;Group&gt;"><path class="cls-27" d="M388.35,198.68H373.69a2.57,2.57,0,0,0-2.57,2.57v3.59a9,9,0,0,0,2.65,6.38l2.23,2.23a3.62,3.62,0,0,1,0,5.1l-2.23,2.23a9,9,0,0,0-2.65,6.38v3.59a2.57,2.57,0,0,0,2.57,2.57h14.66a2.56,2.56,0,0,0,2.56-2.57v-3.59a9,9,0,0,0-2.64-6.38L386,218.55a3.62,3.62,0,0,1,0-5.1l2.23-2.23a9,9,0,0,0,2.64-6.38v-3.59A2.56,2.56,0,0,0,388.35,198.68Z"/><path class="cls-26" d="M373.87,206.91v-2a1.28,1.28,0,0,1,1.29-1.28h11.72a1.28,1.28,0,0,1,1.29,1.28v2a1.31,1.31,0,0,1-.38.91l-5.86,5.86a1.29,1.29,0,0,1-1.82,0l-5.86-5.86A1.31,1.31,0,0,1,373.87,206.91Z"/><path class="cls-26" d="M376.06,228.38l4.05-4a1.29,1.29,0,0,1,1.82,0l4.05,4a1.29,1.29,0,0,1-.91,2.19H377A1.28,1.28,0,0,1,376.06,228.38Z"/></g><circle class="cls-26" cx="266.64" cy="342" r="23.82"/><path class="cls-27" d="M266.64,319.18A22.82,22.82,0,1,1,243.82,342a22.82,22.82,0,0,1,22.82-22.82m0-2A24.82,24.82,0,1,0,291.46,342a24.85,24.85,0,0,0-24.82-24.82Z"/><g id="_Group_3" data-name="&lt;Group&gt;"><path class="cls-27" d="M274,324.68H259.31a2.57,2.57,0,0,0-2.56,2.57v3.59a9,9,0,0,0,2.64,6.38l2.23,2.23a3.6,3.6,0,0,1,0,5.1l-2.23,2.23a9,9,0,0,0-2.64,6.38v3.59a2.57,2.57,0,0,0,2.56,2.57H274a2.57,2.57,0,0,0,2.57-2.57v-3.59a9,9,0,0,0-2.65-6.38l-2.22-2.23a3.6,3.6,0,0,1,0-5.1l2.22-2.23a9,9,0,0,0,2.65-6.38v-3.59A2.57,2.57,0,0,0,274,324.68Z"/><path class="cls-26" d="M259.5,332.91v-2a1.28,1.28,0,0,1,1.28-1.28h11.73a1.28,1.28,0,0,1,1.28,1.28v2a1.31,1.31,0,0,1-.38.91l-5.86,5.86a1.28,1.28,0,0,1-1.81,0l-5.87-5.86A1.3,1.3,0,0,1,259.5,332.91Z"/><path class="cls-26" d="M261.69,354.38l4.05-4.05a1.28,1.28,0,0,1,1.81,0l4.05,4.05a1.28,1.28,0,0,1-.91,2.19h-8.1A1.28,1.28,0,0,1,261.69,354.38Z"/></g><path class="cls-28" d="M54.48,428.35a2,2,0,0,0,2.81.88l7.79-4.5,0,0a2.06,2.06,0,0,0,.37-.29s0,0,0,0a1.52,1.52,0,0,0,.26-.35.75.75,0,0,0,.07-.12,1.79,1.79,0,0,0,.13-.32.5.5,0,0,0,0-.13,1.87,1.87,0,0,0,0-.94.5.5,0,0,0,0-.13,1.79,1.79,0,0,0-.13-.32.47.47,0,0,0-.07-.12,1.52,1.52,0,0,0-.26-.35s0,0,0,0a2.06,2.06,0,0,0-.37-.29l0,0-7.7-4.45a2.07,2.07,0,0,0-2.63.4,2,2,0,0,0,.54,3l1.33.77H34.91a2,2,0,0,0-2,2h0a2,2,0,0,0,2,2H56.62l-1.23.71A2.08,2.08,0,0,0,54.48,428.35Z"/><path class="cls-29" d="M54.48,410.35a2,2,0,0,0,2.81.88l7.79-4.5,0,0a2.06,2.06,0,0,0,.37-.29s0,0,0,0a1.52,1.52,0,0,0,.26-.35.75.75,0,0,0,.07-.12,1.79,1.79,0,0,0,.13-.32.5.5,0,0,0,0-.13,1.87,1.87,0,0,0,0-.94.5.5,0,0,0,0-.13,1.79,1.79,0,0,0-.13-.32.47.47,0,0,0-.07-.12,1.52,1.52,0,0,0-.26-.35s0,0,0,0a2.06,2.06,0,0,0-.37-.29l0,0-7.7-4.45a2.07,2.07,0,0,0-2.63.4,2,2,0,0,0,.54,3l1.33.77H34.91a2,2,0,0,0-2,2h0a2,2,0,0,0,2,2H56.62l-1.23.71A2.08,2.08,0,0,0,54.48,410.35Z"/><path class="cls-30" d="M54.48,392.35a2,2,0,0,0,2.81.88l7.79-4.5,0,0a2.06,2.06,0,0,0,.37-.29s0,0,0,0a1.52,1.52,0,0,0,.26-.35.75.75,0,0,0,.07-.12,1.79,1.79,0,0,0,.13-.32.5.5,0,0,0,0-.13,1.87,1.87,0,0,0,0-.94.5.5,0,0,0,0-.13,1.79,1.79,0,0,0-.13-.32.47.47,0,0,0-.07-.12,1.52,1.52,0,0,0-.26-.35s0,0,0,0a2.06,2.06,0,0,0-.37-.29l0,0-7.7-4.45a2.07,2.07,0,0,0-2.63.4,2,2,0,0,0,.54,3l1.33.77H34.91a2,2,0,0,0-2,2h0a2,2,0,0,0,2,2H56.62l-1.23.71A2.08,2.08,0,0,0,54.48,392.35Z"/><path class="cls-31" d="M54.48,374.35a2,2,0,0,0,2.81.88l7.79-4.5,0,0a2.06,2.06,0,0,0,.37-.29s0,0,0,0a1.52,1.52,0,0,0,.26-.35.75.75,0,0,0,.07-.12,1.79,1.79,0,0,0,.13-.32.5.5,0,0,0,0-.13,1.87,1.87,0,0,0,0-.94.5.5,0,0,0,0-.13,1.79,1.79,0,0,0-.13-.32.47.47,0,0,0-.07-.12,1.52,1.52,0,0,0-.26-.35s0,0,0,0a2.06,2.06,0,0,0-.37-.29l0,0-7.7-4.45a2.07,2.07,0,0,0-2.63.4,2,2,0,0,0,.54,3l1.33.77H34.91a2,2,0,0,0-2,2h0a2,2,0,0,0,2,2H56.62l-1.23.71A2.08,2.08,0,0,0,54.48,374.35Z"/><path class="cls-32" d="M54.48,356.35a2,2,0,0,0,2.81.88l7.79-4.5,0,0a2.06,2.06,0,0,0,.37-.29s0,0,0,0a1.52,1.52,0,0,0,.26-.35.75.75,0,0,0,.07-.12,1.79,1.79,0,0,0,.13-.32.5.5,0,0,0,0-.13,1.87,1.87,0,0,0,0-.94.5.5,0,0,0,0-.13,1.79,1.79,0,0,0-.13-.32.47.47,0,0,0-.07-.12,1.52,1.52,0,0,0-.26-.35s0,0,0,0a2.06,2.06,0,0,0-.37-.29l0,0-7.7-4.45a2.07,2.07,0,0,0-2.63.4,2,2,0,0,0,.54,3l1.33.77H34.91a2,2,0,0,0-2,2h0a2,2,0,0,0,2,2H56.62l-1.23.71A2.08,2.08,0,0,0,54.48,356.35Z"/><path class="cls-33" d="M54.48,338.35a2,2,0,0,0,2.81.88l7.79-4.5,0,0a2.06,2.06,0,0,0,.37-.29s0,0,0,0a1.52,1.52,0,0,0,.26-.35.75.75,0,0,0,.07-.12,1.79,1.79,0,0,0,.13-.32.5.5,0,0,0,0-.13,1.87,1.87,0,0,0,0-.94.5.5,0,0,0,0-.13,1.79,1.79,0,0,0-.13-.32.47.47,0,0,0-.07-.12,1.52,1.52,0,0,0-.26-.35s0,0,0,0a2.06,2.06,0,0,0-.37-.29l0,0-7.7-4.45a2.07,2.07,0,0,0-2.63.4,2,2,0,0,0,.54,3l1.33.77H34.91a2,2,0,0,0-2,2h0a2,2,0,0,0,2,2H56.62l-1.23.71A2.08,2.08,0,0,0,54.48,338.35Z"/><path class="cls-34" d="M54.48,320.35a2,2,0,0,0,2.81.88l7.79-4.5,0,0a2.06,2.06,0,0,0,.37-.29s0,0,0,0a1.52,1.52,0,0,0,.26-.35.75.75,0,0,0,.07-.12,1.79,1.79,0,0,0,.13-.32.5.5,0,0,0,0-.13,1.87,1.87,0,0,0,0-.94.5.5,0,0,0,0-.13,1.79,1.79,0,0,0-.13-.32.47.47,0,0,0-.07-.12,1.52,1.52,0,0,0-.26-.35s0,0,0,0a2.06,2.06,0,0,0-.37-.29l0,0-7.7-4.45a2.07,2.07,0,0,0-2.63.4,2,2,0,0,0,.54,3l1.33.77H34.91a2,2,0,0,0-2,2h0a2,2,0,0,0,2,2H56.62l-1.23.71A2.08,2.08,0,0,0,54.48,320.35Z"/><path class="cls-35" d="M54.48,302.35a2,2,0,0,0,2.81.88l7.79-4.5,0,0a2.06,2.06,0,0,0,.37-.29s0,0,0,0a1.52,1.52,0,0,0,.26-.35.75.75,0,0,0,.07-.12,1.79,1.79,0,0,0,.13-.32.5.5,0,0,0,0-.13,1.87,1.87,0,0,0,0-.94.5.5,0,0,0,0-.13,1.79,1.79,0,0,0-.13-.32.47.47,0,0,0-.07-.12,1.52,1.52,0,0,0-.26-.35s0,0,0,0a2.06,2.06,0,0,0-.37-.29l0,0-7.7-4.45a2.07,2.07,0,0,0-2.63.4,2,2,0,0,0,.54,3l1.33.77H34.91a2,2,0,0,0-2,2h0a2,2,0,0,0,2,2H56.62l-1.23.71A2.08,2.08,0,0,0,54.48,302.35Z"/><path class="cls-36" d="M54.48,284.35a2,2,0,0,0,2.81.88l7.79-4.5,0,0a2.06,2.06,0,0,0,.37-.29s0,0,0,0a1.52,1.52,0,0,0,.26-.35.75.75,0,0,0,.07-.12,1.79,1.79,0,0,0,.13-.32.5.5,0,0,0,0-.13,1.87,1.87,0,0,0,0-.94.5.5,0,0,0,0-.13,1.79,1.79,0,0,0-.13-.32.47.47,0,0,0-.07-.12,1.52,1.52,0,0,0-.26-.35s0,0,0,0a2.06,2.06,0,0,0-.37-.29l0,0-7.7-4.45a2.07,2.07,0,0,0-2.63.4,2,2,0,0,0,.54,3l1.33.77H34.91a2,2,0,0,0-2,2h0a2,2,0,0,0,2,2H56.62l-1.23.71A2.08,2.08,0,0,0,54.48,284.35Z"/><path class="cls-37" d="M54.48,266.35a2,2,0,0,0,2.81.88l7.79-4.5,0,0a2.06,2.06,0,0,0,.37-.29s0,0,0,0a1.52,1.52,0,0,0,.26-.35.75.75,0,0,0,.07-.12,1.79,1.79,0,0,0,.13-.32.5.5,0,0,0,0-.13,1.87,1.87,0,0,0,0-.94.5.5,0,0,0,0-.13,1.79,1.79,0,0,0-.13-.32.47.47,0,0,0-.07-.12,1.52,1.52,0,0,0-.26-.35s0,0,0,0a2.06,2.06,0,0,0-.37-.29l0,0-7.7-4.45a2.07,2.07,0,0,0-2.63.4,2,2,0,0,0,.54,3l1.33.77H34.91a2,2,0,0,0-2,2h0a2,2,0,0,0,2,2H56.62l-1.23.71A2.08,2.08,0,0,0,54.48,266.35Z"/><path class="cls-38" d="M54.48,248.35a2,2,0,0,0,2.81.88l7.79-4.5,0,0a2.06,2.06,0,0,0,.37-.29s0,0,0,0a1.52,1.52,0,0,0,.26-.35.75.75,0,0,0,.07-.12,1.79,1.79,0,0,0,.13-.32.5.5,0,0,0,0-.13,1.87,1.87,0,0,0,0-.94.5.5,0,0,0,0-.13,1.79,1.79,0,0,0-.13-.32.47.47,0,0,0-.07-.12,1.52,1.52,0,0,0-.26-.35s0,0,0,0a2.06,2.06,0,0,0-.37-.29l0,0-7.7-4.45a2.07,2.07,0,0,0-2.63.4,2,2,0,0,0,.54,3l1.33.77H34.91a2,2,0,0,0-2,2h0a2,2,0,0,0,2,2H56.62l-1.23.71A2.08,2.08,0,0,0,54.48,248.35Z"/><path class="cls-39" d="M54.48,230.35a2,2,0,0,0,2.81.88l7.79-4.5,0,0a2.06,2.06,0,0,0,.37-.29s0,0,0,0a1.52,1.52,0,0,0,.26-.35.75.75,0,0,0,.07-.12,1.79,1.79,0,0,0,.13-.32.5.5,0,0,0,0-.13,1.87,1.87,0,0,0,0-.94.5.5,0,0,0,0-.13,1.79,1.79,0,0,0-.13-.32.47.47,0,0,0-.07-.12,1.52,1.52,0,0,0-.26-.35s0,0,0,0a2.06,2.06,0,0,0-.37-.29l0,0-7.7-4.45a2.07,2.07,0,0,0-2.63.4,2,2,0,0,0,.54,3l1.33.77H34.91a2,2,0,0,0-2,2h0a2,2,0,0,0,2,2H56.62l-1.23.71A2.08,2.08,0,0,0,54.48,230.35Z"/><path class="cls-40" d="M54.48,212.35a2,2,0,0,0,2.81.88l7.79-4.5,0,0a2.06,2.06,0,0,0,.37-.29s0,0,0,0a1.52,1.52,0,0,0,.26-.35.75.75,0,0,0,.07-.12,1.79,1.79,0,0,0,.13-.32.5.5,0,0,0,0-.13,1.87,1.87,0,0,0,0-.94.5.5,0,0,0,0-.13,1.79,1.79,0,0,0-.13-.32.47.47,0,0,0-.07-.12,1.52,1.52,0,0,0-.26-.35s0,0,0,0a2.06,2.06,0,0,0-.37-.29l0,0-7.7-4.45a2.07,2.07,0,0,0-2.63.4,2,2,0,0,0,.54,3l1.33.77H34.91a2,2,0,0,0-2,2h0a2,2,0,0,0,2,2H56.62l-1.23.71A2.08,2.08,0,0,0,54.48,212.35Z"/><path class="cls-41" d="M54.48,194.35a2,2,0,0,0,2.81.88l7.79-4.5,0,0a2.06,2.06,0,0,0,.37-.29s0,0,0,0a1.52,1.52,0,0,0,.26-.35.75.75,0,0,0,.07-.12,1.79,1.79,0,0,0,.13-.32.5.5,0,0,0,0-.13,1.87,1.87,0,0,0,0-.94.5.5,0,0,0,0-.13,1.79,1.79,0,0,0-.13-.32.47.47,0,0,0-.07-.12,1.52,1.52,0,0,0-.26-.35s0,0,0,0a2.06,2.06,0,0,0-.37-.29l0,0-7.7-4.45a2.07,2.07,0,0,0-2.63.4,2,2,0,0,0,.54,3l1.33.77H34.91a2,2,0,0,0-2,2h0a2,2,0,0,0,2,2H56.62l-1.23.71A2.08,2.08,0,0,0,54.48,194.35Z"/><path class="cls-42" d="M54.48,176.35a2,2,0,0,0,2.81.88l7.79-4.5,0,0a2.06,2.06,0,0,0,.37-.29s0,0,0,0a1.52,1.52,0,0,0,.26-.35.75.75,0,0,0,.07-.12,1.79,1.79,0,0,0,.13-.32.5.5,0,0,0,0-.13,1.87,1.87,0,0,0,0-.94.5.5,0,0,0,0-.13,1.79,1.79,0,0,0-.13-.32.47.47,0,0,0-.07-.12,1.52,1.52,0,0,0-.26-.35s0,0,0,0a2.06,2.06,0,0,0-.37-.29l0,0-7.7-4.45a2.07,2.07,0,0,0-2.63.4,2,2,0,0,0,.54,3l1.33.77H34.91a2,2,0,0,0-2,2h0a2,2,0,0,0,2,2H56.62l-1.23.71A2.08,2.08,0,0,0,54.48,176.35Z"/><path class="cls-43" d="M54.48,158.35a2,2,0,0,0,2.81.88l7.79-4.5,0,0a2.06,2.06,0,0,0,.37-.29s0,0,0,0a1.52,1.52,0,0,0,.26-.35.75.75,0,0,0,.07-.12,1.79,1.79,0,0,0,.13-.32.5.5,0,0,0,0-.13,1.87,1.87,0,0,0,0-.94.5.5,0,0,0,0-.13,1.79,1.79,0,0,0-.13-.32.47.47,0,0,0-.07-.12,1.52,1.52,0,0,0-.26-.35s0,0,0,0a2.06,2.06,0,0,0-.37-.29l0,0-7.7-4.45a2.07,2.07,0,0,0-2.63.4,2,2,0,0,0,.54,3l1.33.77H34.91a2,2,0,0,0-2,2h0a2,2,0,0,0,2,2H56.62l-1.23.71A2.08,2.08,0,0,0,54.48,158.35Z"/><path class="cls-44" d="M54.48,140.35a2,2,0,0,0,2.81.88l7.79-4.5,0,0a2.06,2.06,0,0,0,.37-.29s0,0,0,0a1.52,1.52,0,0,0,.26-.35.75.75,0,0,0,.07-.12,1.79,1.79,0,0,0,.13-.32.5.5,0,0,0,0-.13,1.87,1.87,0,0,0,0-.94.5.5,0,0,0,0-.13,1.79,1.79,0,0,0-.13-.32.47.47,0,0,0-.07-.12,1.52,1.52,0,0,0-.26-.35s0,0,0,0a2.06,2.06,0,0,0-.37-.29l0,0-7.7-4.45a2.07,2.07,0,0,0-2.63.4,2,2,0,0,0,.54,3l1.33.77H34.91a2,2,0,0,0-2,2h0a2,2,0,0,0,2,2H56.62l-1.23.71A2.08,2.08,0,0,0,54.48,140.35Z"/><path class="cls-45" d="M54.48,122.35a2,2,0,0,0,2.81.88l7.79-4.5,0,0a2.06,2.06,0,0,0,.37-.29s0,0,0,0a1.52,1.52,0,0,0,.26-.35.75.75,0,0,0,.07-.12,1.79,1.79,0,0,0,.13-.32.5.5,0,0,0,0-.13,1.87,1.87,0,0,0,0-.94.5.5,0,0,0,0-.13,1.79,1.79,0,0,0-.13-.32.47.47,0,0,0-.07-.12,1.52,1.52,0,0,0-.26-.35s0,0,0,0a2.06,2.06,0,0,0-.37-.29l0,0-7.7-4.45a2.07,2.07,0,0,0-2.63.4,2,2,0,0,0,.54,3l1.33.77H34.91a2,2,0,0,0-2,2h0a2,2,0,0,0,2,2H56.62l-1.23.71A2.08,2.08,0,0,0,54.48,122.35Z"/><path class="cls-46" d="M54.48,104.35a2,2,0,0,0,2.81.88l7.79-4.5,0,0a2.06,2.06,0,0,0,.37-.29s0,0,0,0a1.52,1.52,0,0,0,.26-.35.75.75,0,0,0,.07-.12A1.79,1.79,0,0,0,66,99.6a.5.5,0,0,0,0-.13,1.87,1.87,0,0,0,0-.94.5.5,0,0,0,0-.13,1.79,1.79,0,0,0-.13-.32.47.47,0,0,0-.07-.12,1.52,1.52,0,0,0-.26-.35s0,0,0,0a2.06,2.06,0,0,0-.37-.29l0,0-7.7-4.45a2.07,2.07,0,0,0-2.63.4,2,2,0,0,0,.54,3l1.33.77H34.91a2,2,0,0,0-2,2h0a2,2,0,0,0,2,2H56.62l-1.23.71A2.08,2.08,0,0,0,54.48,104.35Z"/><path class="cls-47" d="M54.48,86.35a2,2,0,0,0,2.81.88l7.79-4.5,0,0a2.06,2.06,0,0,0,.37-.29s0,0,0,0a1.52,1.52,0,0,0,.26-.35.75.75,0,0,0,.07-.12A1.79,1.79,0,0,0,66,81.6a.5.5,0,0,0,0-.13,1.87,1.87,0,0,0,0-.94.5.5,0,0,0,0-.13,1.79,1.79,0,0,0-.13-.32.47.47,0,0,0-.07-.12,1.52,1.52,0,0,0-.26-.35s0,0,0,0a2.06,2.06,0,0,0-.37-.29l0,0-7.7-4.45a2.07,2.07,0,0,0-2.63.4,2,2,0,0,0,.54,3l1.33.77H34.91a2,2,0,0,0-2,2h0a2,2,0,0,0,2,2H56.62l-1.23.71A2.08,2.08,0,0,0,54.48,86.35Z"/><path class="cls-48" d="M54.48,68.35a2,2,0,0,0,2.81.88l7.79-4.5,0,0a2.06,2.06,0,0,0,.37-.29s0,0,0,0a1.52,1.52,0,0,0,.26-.35.75.75,0,0,0,.07-.12A1.79,1.79,0,0,0,66,63.6a.5.5,0,0,0,0-.13,1.87,1.87,0,0,0,0-.94.5.5,0,0,0,0-.13,1.79,1.79,0,0,0-.13-.32.47.47,0,0,0-.07-.12,1.52,1.52,0,0,0-.26-.35s0,0,0,0a2.06,2.06,0,0,0-.37-.29l0,0-7.7-4.45a2.07,2.07,0,0,0-2.63.4,2,2,0,0,0,.54,3l1.33.77H34.91a2,2,0,0,0-2,2h0a2,2,0,0,0,2,2H56.62l-1.23.71A2.08,2.08,0,0,0,54.48,68.35Z"/><path class="cls-49" d="M54.48,50.35a2,2,0,0,0,2.81.88l7.79-4.5,0,0a2.06,2.06,0,0,0,.37-.29s0,0,0,0a1.52,1.52,0,0,0,.26-.35.75.75,0,0,0,.07-.12A1.79,1.79,0,0,0,66,45.6a.5.5,0,0,0,0-.13,1.87,1.87,0,0,0,0-.94.5.5,0,0,0,0-.13,1.79,1.79,0,0,0-.13-.32.47.47,0,0,0-.07-.12,1.52,1.52,0,0,0-.26-.35s0,0,0,0a2.06,2.06,0,0,0-.37-.29l0,0-7.7-4.45a2.07,2.07,0,0,0-2.63.4,2,2,0,0,0,.54,3l1.33.77H34.91a2,2,0,0,0-2,2h0a2,2,0,0,0,2,2H56.62l-1.23.71A2.08,2.08,0,0,0,54.48,50.35Z"/><path class="cls-50" d="M54.48,32.35a2,2,0,0,0,2.81.88l7.79-4.5,0,0a2.06,2.06,0,0,0,.37-.29s0,0,0,0a1.52,1.52,0,0,0,.26-.35.75.75,0,0,0,.07-.12A1.79,1.79,0,0,0,66,27.6a.5.5,0,0,0,0-.13,1.87,1.87,0,0,0,0-.94.5.5,0,0,0,0-.13,1.79,1.79,0,0,0-.13-.32.47.47,0,0,0-.07-.12,1.52,1.52,0,0,0-.26-.35s0,0,0,0a2.06,2.06,0,0,0-.37-.29l0,0-7.7-4.45a2.07,2.07,0,0,0-2.63.4,2,2,0,0,0,.54,3l1.33.77H34.91a2,2,0,0,0-2,2h0a2,2,0,0,0,2,2H56.62l-1.23.71A2.08,2.08,0,0,0,54.48,32.35Z"/></svg>