<svg viewBox="0 0 627 450" xmlns="http://www.w3.org/2000/svg" xmlns:xlink="http://www.w3.org/1999/xlink"><linearGradient id="a" gradientUnits="userSpaceOnUse" x1=".5" x2="121.39" y1="95.29" y2="95.29"><stop offset=".06" stop-color="#00adec" stop-opacity="0"/><stop offset=".34" stop-color="#00adec"/><stop offset="1" stop-color="#62fbbc"/></linearGradient><linearGradient id="b" gradientUnits="userSpaceOnUse" x1="506.62" x2="627.5" y1="95.29" y2="95.29"><stop offset="0" stop-color="#62fbbc"/><stop offset=".66" stop-color="#00adec"/><stop offset=".94" stop-color="#00adec" stop-opacity="0"/></linearGradient><linearGradient id="c" gradientUnits="userSpaceOnUse" x1="41.77" x2="586.34" y1="241.38" y2="241.38"><stop offset=".43" stop-color="#fff"/><stop offset="1" stop-color="#cfdbe6"/></linearGradient><linearGradient id="d" x1="-.5" x2="121.89" xlink:href="#a" y1="379.29" y2="379.29"/><linearGradient id="e" gradientUnits="userSpaceOnUse" x1="506.12" x2="627.5" y1="379" y2="379"><stop offset="0" stop-color="#00adec"/><stop offset=".66" stop-color="#62fbbc"/><stop offset=".93" stop-color="#62fbbc" stop-opacity="0"/></linearGradient><linearGradient id="f" gradientUnits="userSpaceOnUse" x1="157.83" x2="472.78" y1="382.3" y2="67.36"><stop offset="0" stop-color="#62fbbc"/><stop offset="1" stop-color="#00adec"/></linearGradient><linearGradient id="g" x1="265.19" x2="364.52" xlink:href="#f" y1="298.46" y2="151.2"/><linearGradient id="h" gradientUnits="userSpaceOnUse" x1="385.71" x2="557.68" y1="224.83" y2="224.83"><stop offset="0" stop-color="#00adec"/><stop offset="1" stop-color="#62fbbc"/></linearGradient><linearGradient id="i" gradientUnits="userSpaceOnUse" x1="334.82" x2="377.87" y1="145.49" y2="70.92"><stop offset="0" stop-color="#2b3d7c"/><stop offset=".86" stop-color="#2b3d7c" stop-opacity="0"/></linearGradient><linearGradient id="j" x1="228.87" x2="400.84" xlink:href="#c" y1="133.82" y2="133.82"/><linearGradient id="k" gradientUnits="userSpaceOnUse" x1="374.62" x2="386.07" y1="170.02" y2="170.02"><stop offset="0" stop-color="#00adec"/><stop offset=".93" stop-color="#00adec" stop-opacity="0"/></linearGradient><linearGradient id="l" x1="265.13" x2="364.58" xlink:href="#f" y1="179.87" y2="80.41"/><linearGradient id="m" x1="316.38" x2="326.21" xlink:href="#i" y1="110.65" y2="93.61"/><linearGradient id="n" x1="254.09" x2="375.19" xlink:href="#h" y1="97.04" y2="97.04"/><linearGradient id="o" x1="259.05" x2="268.89" xlink:href="#i" y1="142.23" y2="125.19"/><linearGradient id="p" x1="316.82" x2="326.66" xlink:href="#i" y1="173.81" y2="156.77"/><linearGradient id="q" x1="373.7" x2="383.53" xlink:href="#i" y1="142.23" y2="125.19"/><linearGradient id="r" x1="177.98" x2="221.03" xlink:href="#i" y1="236.5" y2="161.93"/><linearGradient id="s" x1="72.03" x2="244" xlink:href="#c" y1="224.83" y2="224.83"/><linearGradient id="t" x1="217.93" x2="229.37" xlink:href="#k" y1="261.09" y2="261.09"/><linearGradient id="u" x1="108.29" x2="207.74" xlink:href="#f" y1="270.88" y2="171.42"/><linearGradient id="v" x1="159.54" x2="169.37" xlink:href="#i" y1="201.66" y2="184.62"/><linearGradient id="w" x1="97.25" x2="218.35" xlink:href="#h" y1="188.06" y2="188.06"/><linearGradient id="x" x1="102.21" x2="112.05" xlink:href="#i" y1="233.24" y2="216.2"/><linearGradient id="y" x1="159.98" x2="169.82" xlink:href="#i" y1="264.82" y2="247.78"/><linearGradient id="z" x1="216.86" x2="226.69" xlink:href="#i" y1="233.24" y2="216.2"/><linearGradient id="A" x1="491.66" x2="534.71" xlink:href="#i" y1="236.5" y2="161.93"/><linearGradient id="B" x1="385.71" x2="557.68" xlink:href="#c" y1="224.83" y2="224.83"/><linearGradient id="C" gradientUnits="userSpaceOnUse" x1="404.83" x2="412.71" y1="264.23" y2="256.35"><stop offset="0" stop-color="#62fbbc" stop-opacity="0"/><stop offset="1" stop-color="#62fbbc"/></linearGradient><linearGradient id="D" x1="421.97" x2="521.42" xlink:href="#f" y1="270.88" y2="171.42"/><linearGradient id="E" x1="473.21" x2="483.05" xlink:href="#i" y1="201.66" y2="184.62"/><linearGradient id="F" x1="410.93" x2="532.03" xlink:href="#h" y1="188.06" y2="188.06"/><linearGradient id="G" x1="415.89" x2="425.73" xlink:href="#i" y1="233.24" y2="216.2"/><linearGradient id="H" x1="473.66" x2="483.5" xlink:href="#i" y1="264.82" y2="247.78"/><linearGradient id="I" x1="530.54" x2="540.37" xlink:href="#i" y1="233.24" y2="216.2"/><linearGradient id="J" x1="334.82" x2="377.87" xlink:href="#i" y1="327.51" y2="252.94"/><linearGradient id="K" x1="228.87" x2="400.84" xlink:href="#c" y1="315.84" y2="315.84"/><linearGradient id="L" x1="265.13" x2="364.58" xlink:href="#f" y1="361.89" y2="262.43"/><linearGradient id="M" x1="316.38" x2="326.21" xlink:href="#i" y1="292.67" y2="275.63"/><linearGradient id="N" x1="254.09" x2="375.19" xlink:href="#h" y1="279.07" y2="279.07"/><linearGradient id="O" x1="259.05" x2="268.89" xlink:href="#i" y1="324.25" y2="307.21"/><linearGradient id="P" x1="316.82" x2="326.66" xlink:href="#i" y1="355.84" y2="338.8"/><linearGradient id="Q" x1="373.7" x2="383.53" xlink:href="#i" y1="324.25" y2="307.21"/><linearGradient id="R" x1="248.86" x2="255.91" xlink:href="#C" y1="172.04" y2="164.99"/><path d="m1 60.69 119.89 69.21" fill="none" stroke="url(#a)" stroke-miterlimit="10" stroke-width="2"/><path d="m627 60.69-119.88 69.21" fill="none" stroke="url(#b)" stroke-miterlimit="10" stroke-width="2"/><path d="m584.93 224.83c-13.93-79.29-129.71-140.91-270.87-140.65-141.17-.26-257 61.36-270.88 140.65h-1.4v16.55c-.48 87.09 121.43 157.47 272.28 157.2 150.85.27 272.75-70.11 272.28-157.2v-16.55z" fill="url(#c)"/><path d="m120.89 335.03v17.86l-120.89 69.8" fill="none" stroke="url(#d)" stroke-miterlimit="10" stroke-width="2"/><path d="m507.12 335.03v17.86l119.88 69.22" fill="none" stroke="url(#e)" stroke-miterlimit="10" stroke-width="2"/><ellipse cx="315.3" cy="224.83" fill="#f5f8fa" rx="272.28" ry="157.2"/><path d="m314.41 69.63h1.77c48.49 0 96 7.46 137.4 21.57 40.11 13.68 73.55 33.21 96.69 56.48s35.46 50 35.31 77.16c.15 27.1-12.06 53.77-35.31 77.15s-56.58 42.8-96.69 56.47c-41.4 14.11-88.91 21.54-137.4 21.54h-1.75c-48.49 0-96-7.46-137.4-21.57-40.12-13.68-73.55-33.21-96.7-56.48s-35.46-50.02-35.33-77.13c-.15-27.09 12.07-53.77 35.32-77.15s56.6-42.8 96.68-56.47c41.39-14.11 88.89-21.57 137.38-21.57m1.77-2h-1.75c-150.4-.01-271.85 70.27-271.4 157.2-.45 86.92 121 157.17 271.43 157.17h1.75c150.45 0 271.87-70.27 271.4-157.2.47-86.92-121-157.2-271.4-157.2z" fill="url(#f)"/><path d="m471.69 224.83-156.84 91-156.85-91 156.83-91zm-156.39 80.9v-130.54m-99 49.64h197" fill="none" stroke="url(#g)" stroke-miterlimit="10" stroke-width="2"/><ellipse cx="471.69" cy="224.83" fill="url(#h)" rx="85.98" ry="49.64"/><path d="m250.84 96.86 86.02-49.62 125.05 72.2-86.15 49.69z" fill="url(#i)" opacity=".2"/><ellipse cx="314.85" cy="133.82" fill="url(#j)" rx="85.98" ry="49.64"/><path d="m375.63 164.3v4.77l9.94 5.81" fill="none" stroke="url(#k)" stroke-miterlimit="10" stroke-width="2"/><ellipse cx="314.85" cy="130.14" fill="#fff" rx="85.98" ry="49.64"/><path d="m315.13 82.5c30.13 0 58.08 9.29 73 24.24 7.07 7.12 10.79 15.21 10.75 23.41s-3.68 16.27-10.75 23.39c-14.88 15-42.83 24.24-73 24.24h-.55c-30.13 0-58.08-9.29-73-24.24-7.07-7.12-10.79-15.21-10.75-23.41s3.68-16.27 10.76-23.39c14.87-15 42.82-24.24 72.95-24.24h.55m0-2h-.55c-47.51 0-85.86 22.19-85.71 49.64-.15 27.45 38.2 49.64 85.71 49.64h.55c47.51 0 85.86-22.19 85.71-49.64.15-27.45-38.2-49.64-85.71-49.64z" fill="url(#l)"/><path d="m378.27 120.16c-9.67-5.59-25.3-5.63-34.93-.1l-19.27 11.13c-1.93-1-3.85-2-5.77-3.11s-3.83-2.12-5.75-3.11l19.65-11.34c9.47-5.65 9.17-14.69-.67-20.2-9.62-5.38-24.86-5.41-34.42-.06l-46.06 26.63c-9.47 5.65-9.17 14.69.67 20.2 9.63 5.38 24.86 5.4 34.42.06l19.27-11.13c1.93 1 3.86 2 5.77 3.1s3.83 2.13 5.76 3.11l-19.66 11.35c-9.47 5.65-9.17 14.69.68 20.2 9.62 5.38 24.85 5.41 34.41.06l46.06-26.59c9.57-5.6 9.51-14.62-.16-20.2zm-53.36-22.59c5.71 3.3 5.75 8.62.1 11.91l-20.41 11.78a111 111 0 0 0 -19.1-6.19 62.48 62.48 0 0 0 -9.21-1.36l28-16.18c5.71-3.26 14.91-3.24 20.62.04zm-46 38.5c-5.68 3.27-14.93 3.26-20.64 0s-5.75-8.63-.07-11.91l4.62-2.67c4.08-2.35 11.2-2.71 19.06-1a97.46 97.46 0 0 1 15.49 4.92zm25.62 26.63c-5.71-3.29-5.75-8.61-.09-11.9l20.44-11.8a111.28 111.28 0 0 0 19.1 6.19 62.48 62.48 0 0 0 9.21 1.36l-28 16.18c-5.68 3.26-14.89 3.24-20.6-.05zm43-22.93a97.45 97.45 0 0 1 -15.49-4.91l18.43-10.65c5.69-3.28 14.93-3.26 20.65.05s5.74 8.63.06 11.91l-4.62 2.67c-4 2.34-11.12 2.7-18.97.93z" fill="#cfdbe6" opacity=".4"/><path d="m335 98.78-8.64-5.07-18.28 11a.69.69 0 0 0 .35 1.28h14.16a.67.67 0 0 0 .34-.1z" fill="url(#m)" opacity=".2"/><path d="m323.59 105-3.2-2.12a1.43 1.43 0 0 0 .84-1.14v-20.03l.68-3a50.83 50.83 0 0 0 .9-17.17 2.15 2.15 0 0 0 -1.58-1.83s-1.45-.44-4.54-1.13v-.28a4 4 0 0 0 2.2-3.57v-3.3a4 4 0 0 0 -4-4 4 4 0 0 0 -4 4v3.3a4 4 0 0 0 2 3.45v.4c-3.09.69-4.54 1.13-4.54 1.13a2.17 2.17 0 0 0 -1.59 1.83 51.09 51.09 0 0 0 .9 17.17l.69 3v20.06a1.46 1.46 0 0 0 .85 1.14l-3.06 2.09a.33.33 0 0 0 0 .57 3.07 3.07 0 0 0 3 0l3.23-1.84v-.46a3.52 3.52 0 0 0 .87-.35 1.45 1.45 0 0 0 .84-1.14v-15.67a.67.67 0 0 1 .6-.68.65.65 0 0 1 .72.65v15.69a1.43 1.43 0 0 0 .84 1.14 3.24 3.24 0 0 0 .9.35v.46l3.23 1.84a3.07 3.07 0 0 0 3.05 0 .29.29 0 0 0 .17-.56z" fill="#2b3d7c"/><path d="m314.06 64 58.12 33-57.33 33.1-57.76-33.1zm0 0 .79 66.19m-57.76-33.19h115.09" fill="none" stroke="url(#n)" stroke-miterlimit="10" stroke-width="3"/><path d="m277.71 130.36-8.65-5.07-18.28 11a.69.69 0 0 0 .36 1.27h14.15a.73.73 0 0 0 .35-.09z" fill="url(#o)" opacity=".2"/><path d="m266.26 136.62-3.2-2.12a1.48 1.48 0 0 0 .84-1.15v-20.06l.69-3a51.08 51.08 0 0 0 .9-17.17 2.16 2.16 0 0 0 -1.59-1.83s-1.45-.44-4.54-1.13v-.28a4 4 0 0 0 2.2-3.57v-3.31a4 4 0 0 0 -4-4 4 4 0 0 0 -4 4v3.3a4 4 0 0 0 2 3.45v.41c-3.08.68-4.53 1.12-4.53 1.12a2.15 2.15 0 0 0 -1.59 1.83 51.08 51.08 0 0 0 .9 17.17l.69 3v20.06a1.44 1.44 0 0 0 .84 1.15l-3.11 2.06a.34.34 0 0 0 0 .57 3.07 3.07 0 0 0 3 0l3.23-1.84v-.47a3.75 3.75 0 0 0 .87-.34 1.44 1.44 0 0 0 .84-1.15v-15.62a.68.68 0 0 1 .59-.69.66.66 0 0 1 .73.66v15.68a1.48 1.48 0 0 0 .84 1.15 3.66 3.66 0 0 0 .91.35v.46l3.23 1.84a3.05 3.05 0 0 0 3 0 .29.29 0 0 0 .26-.53z" fill="#2b3d7c"/><path d="m335.48 161.94-8.65-5.07-18.27 11a.68.68 0 0 0 .35 1.27h14.15a.73.73 0 0 0 .35-.09z" fill="url(#p)" opacity=".2"/><path d="m324 168.2-3.2-2.12a1.44 1.44 0 0 0 .84-1.15v-20.06l.69-3a51 51 0 0 0 .9-17.16 2.16 2.16 0 0 0 -1.59-1.84s-1.45-.44-4.54-1.12v-.29a4 4 0 0 0 2.2-3.57v-3.29a4 4 0 0 0 -4-4 4 4 0 0 0 -4 4v3.29a4 4 0 0 0 2 3.46v.4c-3.08.68-4.53 1.12-4.53 1.12a2.16 2.16 0 0 0 -1.59 1.84 51 51 0 0 0 .9 17.16l.69 3v20.06a1.44 1.44 0 0 0 .84 1.15l-3.11 2.06a.33.33 0 0 0 0 .57 3 3 0 0 0 3 0l3.23-1.84v-.47a3.36 3.36 0 0 0 .87-.34 1.48 1.48 0 0 0 .85-1.15v-15.63a.68.68 0 0 1 .6-.69.66.66 0 0 1 .72.66v15.68a1.48 1.48 0 0 0 .85 1.15 3.44 3.44 0 0 0 .9.35v.46l3.23 1.84a3 3 0 0 0 3.05 0 .29.29 0 0 0 .2-.53z" fill="#2b3d7c"/><path d="m392.36 130.36-8.65-5.07-18.28 11a.68.68 0 0 0 .35 1.27h14.16a.67.67 0 0 0 .34-.09z" fill="url(#q)" opacity=".2"/><path d="m380.91 136.62-3.2-2.12a1.44 1.44 0 0 0 .84-1.15v-20.06l.68-3a50.82 50.82 0 0 0 .9-17.17 2.15 2.15 0 0 0 -1.58-1.83s-1.45-.44-4.54-1.13v-.28a4 4 0 0 0 2.2-3.57v-3.31a4 4 0 0 0 -4-4 4 4 0 0 0 -4 4v3.3a4 4 0 0 0 2 3.45v.41c-3.09.68-4.54 1.12-4.54 1.12a2.17 2.17 0 0 0 -1.59 1.83 51.08 51.08 0 0 0 .91 17.17l.68 3v20.06a1.48 1.48 0 0 0 .85 1.15l-3.11 2.06a.33.33 0 0 0 0 .57 3.07 3.07 0 0 0 3 0l3.23-1.84v-.47a3.94 3.94 0 0 0 .87-.34 1.44 1.44 0 0 0 .84-1.15v-15.62a.68.68 0 0 1 .6-.69.66.66 0 0 1 .73.66v15.68a1.44 1.44 0 0 0 .84 1.15 3.74 3.74 0 0 0 .9.35v.46l3.23 1.84a3.07 3.07 0 0 0 3.05 0 .29.29 0 0 0 .21-.53z" fill="#2b3d7c"/><path d="m94 187.87 86.02-49.62 125.05 72.2-86.14 49.69z" fill="url(#r)" opacity=".2"/><ellipse cx="158.02" cy="224.83" fill="url(#s)" rx="85.98" ry="49.64"/><path d="m218.93 255.38v4.76l9.94 5.81" fill="none" stroke="url(#t)" stroke-miterlimit="10" stroke-width="2"/><ellipse cx="158.02" cy="221.15" fill="#fff" rx="85.98" ry="49.64"/><path d="m157.74 173.51h.55c30.13 0 58.08 9.29 73 24.24 7.03 7.12 10.71 15.25 10.71 23.41s-3.68 16.27-10.75 23.39c-14.88 14.95-42.83 24.24-73 24.24h-.55c-30.13 0-58.08-9.29-73-24.24-6.99-7.12-10.7-15.21-10.7-23.41s3.68-16.27 10.76-23.39c14.87-14.95 42.82-24.24 73-24.24m.55-2h-.55c-47.51 0-85.86 22.19-85.71 49.64-.15 27.45 38.2 49.64 85.71 49.64h.55c47.51 0 85.86-22.19 85.71-49.64.15-27.45-38.2-49.64-85.71-49.64z" fill="url(#u)"/><path d="m221.43 211.17c-9.67-5.59-25.29-5.63-34.93-.1l-19.27 11.13c-1.93-1-3.85-2-5.77-3.1s-3.83-2.13-5.75-3.11l19.65-11.35c9.47-5.65 9.17-14.69-.67-20.2-9.62-5.38-24.86-5.41-34.42-.06l-46.06 26.62c-9.47 5.65-9.17 14.69.67 20.2 9.63 5.38 24.86 5.41 34.42.06l19.27-11.13c1.93 1 3.86 2 5.77 3.11s3.83 2.12 5.76 3.11l-19.66 11.34c-9.47 5.65-9.17 14.69.68 20.2 9.62 5.38 24.85 5.41 34.41.06l46.06-26.59c9.58-5.59 9.51-14.61-.16-20.19zm-53.36-22.58c5.71 3.29 5.75 8.61.1 11.9l-20.41 11.78a111 111 0 0 0 -19.1-6.19 62.48 62.48 0 0 0 -9.21-1.36l28-16.18c5.7-3.26 14.91-3.24 20.62.05zm-46 38.49c-5.68 3.28-14.93 3.26-20.64-.05s-5.75-8.63-.07-11.91l4.62-2.67c4.08-2.35 11.2-2.71 19.06-.95a97.46 97.46 0 0 1 15.49 4.92zm25.62 26.64c-5.71-3.3-5.75-8.62-.09-11.91l20.4-11.81a111.28 111.28 0 0 0 19.1 6.19 62.48 62.48 0 0 0 9.21 1.36l-28 16.18c-5.68 3.26-14.89 3.24-20.6 0zm43-22.94a96.44 96.44 0 0 1 -15.49-4.91l18.43-10.65c5.69-3.27 14.93-3.26 20.65.05s5.74 8.63.06 11.91l-4.62 2.67c-4 2.34-11.12 2.7-18.97.93z" fill="#cfdbe6" opacity=".4"/><path d="m178.2 189.79-8.65-5.07-18.28 11a.68.68 0 0 0 .35 1.27h14.16a.59.59 0 0 0 .34-.1z" fill="url(#v)" opacity=".2"/><path d="m166.75 196.05-3.2-2.12a1.41 1.41 0 0 0 .84-1.14v-20.07l.68-3a50.83 50.83 0 0 0 .9-17.17 2.15 2.15 0 0 0 -1.58-1.83s-1.45-.44-4.54-1.13v-.28a4 4 0 0 0 2.2-3.57v-3.3a4 4 0 0 0 -4-4 4 4 0 0 0 -4 4v3.3a4 4 0 0 0 2 3.45v.4c-3.09.69-4.54 1.13-4.54 1.13a2.17 2.17 0 0 0 -1.59 1.83 51.09 51.09 0 0 0 .91 17.17l.68 3v20.06a1.45 1.45 0 0 0 .85 1.14l-3.06 2.08a.33.33 0 0 0 0 .57 3.07 3.07 0 0 0 3.05 0l3.23-1.84v-.47a3.52 3.52 0 0 0 .87-.35 1.41 1.41 0 0 0 .84-1.14v-15.64a.68.68 0 0 1 .6-.69.66.66 0 0 1 .73.66v15.68a1.41 1.41 0 0 0 .84 1.14 3.39 3.39 0 0 0 .9.36v.46l3.23 1.84a3.07 3.07 0 0 0 3 0 .29.29 0 0 0 .16-.53z" fill="#2b3d7c"/><path d="m157.22 155 58.12 33.1-57.34 33.05-57.76-33.09zm0 0 .79 66.19m-57.76-33.09h115.09" fill="none" stroke="url(#w)" stroke-miterlimit="10" stroke-width="3"/><path d="m120.87 221.37-8.65-5.07-18.28 11a.68.68 0 0 0 .36 1.27h14.15a.73.73 0 0 0 .35-.09z" fill="url(#x)" opacity=".2"/><path d="m109.42 227.63-3.2-2.12a1.48 1.48 0 0 0 .84-1.15v-20.06l.69-3a51 51 0 0 0 .9-17.16 2.17 2.17 0 0 0 -1.59-1.84s-1.45-.44-4.54-1.12v-.29a4 4 0 0 0 2.2-3.57v-3.32a4 4 0 0 0 -4-4 4 4 0 0 0 -4 4v3.29a4 4 0 0 0 2 3.46v.4c-3.08.68-4.53 1.12-4.53 1.12a2.16 2.16 0 0 0 -1.59 1.84 51 51 0 0 0 .9 17.16l.69 3v20.06a1.44 1.44 0 0 0 .84 1.15l-3.03 2.1a.34.34 0 0 0 0 .57 3 3 0 0 0 3.05 0l3.23-1.84v-.47a3.36 3.36 0 0 0 .87-.34 1.44 1.44 0 0 0 .84-1.15v-15.64a.68.68 0 0 1 .59-.69.66.66 0 0 1 .73.66v15.68a1.48 1.48 0 0 0 .85 1.15 3.44 3.44 0 0 0 .9.35v.46l3.23 1.84a3 3 0 0 0 3 0 .29.29 0 0 0 .13-.53z" fill="#2b3d7c"/><path d="m178.64 253-8.64-5.12-18.27 11a.68.68 0 0 0 .35 1.27h14.15a.73.73 0 0 0 .35-.09z" fill="url(#y)" opacity=".2"/><path d="m167.2 259.21-3.2-2.11a1.44 1.44 0 0 0 .84-1.14v-20.08l.69-3a51 51 0 0 0 .9-17.16 2.16 2.16 0 0 0 -1.59-1.84s-1.45-.43-4.54-1.12v-.29a4 4 0 0 0 2.2-3.56v-3.3a4 4 0 0 0 -4-4 4 4 0 0 0 -4 4v3.3a4 4 0 0 0 2 3.45v.4c-3.08.69-4.53 1.12-4.53 1.12a2.16 2.16 0 0 0 -1.59 1.84 51 51 0 0 0 .9 17.16l.69 3v20.06a1.46 1.46 0 0 0 .84 1.14l-3.11 2.06a.33.33 0 0 0 0 .57 3 3 0 0 0 3 0l3.3-1.81v-.47a3.36 3.36 0 0 0 .87-.34 1.48 1.48 0 0 0 .85-1.14v-15.66a.68.68 0 0 1 .6-.69.67.67 0 0 1 .72.66v15.68a1.48 1.48 0 0 0 .85 1.14 3.44 3.44 0 0 0 .9.35v.46l3.23 1.84a3 3 0 0 0 3.05 0 .29.29 0 0 0 .13-.52z" fill="#2b3d7c"/><path d="m235.52 221.37-8.65-5.07-18.28 11a.68.68 0 0 0 .35 1.27h14.16a.67.67 0 0 0 .34-.09z" fill="url(#z)" opacity=".2"/><path d="m224.07 227.63-3.2-2.12a1.44 1.44 0 0 0 .84-1.15v-20.06l.68-3a50.77 50.77 0 0 0 .9-17.16 2.16 2.16 0 0 0 -1.58-1.84s-1.45-.44-4.54-1.12v-.29a4 4 0 0 0 2.2-3.57v-3.32a4 4 0 0 0 -4-4 4 4 0 0 0 -4 4v3.29a4 4 0 0 0 2 3.46v.4c-3.09.68-4.54 1.12-4.54 1.12a2.16 2.16 0 0 0 -1.58 1.84 50.77 50.77 0 0 0 .9 17.16l.68 3v20.06a1.48 1.48 0 0 0 .85 1.15l-3.12 2.06a.33.33 0 0 0 0 .57 3 3 0 0 0 3.05 0l3.23-1.84v-.47a3.5 3.5 0 0 0 .87-.34 1.44 1.44 0 0 0 .84-1.15v-15.6a.68.68 0 0 1 .6-.69.66.66 0 0 1 .73.66v15.68a1.44 1.44 0 0 0 .84 1.15 3.74 3.74 0 0 0 .9.35v.46l3.23 1.84a3 3 0 0 0 3 0 .29.29 0 0 0 .22-.53z" fill="#2b3d7c"/><path d="m407.68 187.87 86.02-49.62 125.05 72.2-86.14 49.69z" fill="url(#A)" opacity=".2"/><ellipse cx="471.69" cy="224.83" fill="url(#B)" rx="85.98" ry="49.64"/><path d="m410.94 255.58v4.51l-6.26 3.63" fill="none" stroke="url(#C)" stroke-miterlimit="10" stroke-width="2"/><ellipse cx="471.69" cy="221.15" fill="#fff" rx="85.98" ry="49.64"/><path d="m471.42 173.51h.58c30.13 0 58.08 9.29 73 24.24 7.07 7.12 10.79 15.21 10.75 23.41s-3.68 16.27-10.76 23.39c-14.94 14.95-42.89 24.24-72.99 24.24h-.55c-30.13 0-58.08-9.29-73-24.24-7.08-7.12-10.79-15.21-10.75-23.41s3.68-16.27 10.76-23.39c14.87-14.95 42.82-24.24 72.95-24.24m.55-2h-.55c-47.51 0-85.86 22.19-85.71 49.64-.15 27.45 38.2 49.64 85.71 49.64h.59c47.51 0 85.86-22.19 85.71-49.64.15-27.45-38.2-49.64-85.71-49.64z" fill="url(#D)"/><ellipse cx="471.69" cy="221.15" fill="#fff" rx="85.98" ry="49.64"/><path d="m471.42 173.51h.58c30.13 0 58.08 9.29 73 24.24 7.07 7.12 10.79 15.21 10.75 23.41s-3.68 16.27-10.76 23.39c-14.94 14.95-42.89 24.24-72.99 24.24h-.55c-30.13 0-58.08-9.29-73-24.24-7.08-7.12-10.79-15.21-10.75-23.41s3.68-16.27 10.76-23.39c14.87-14.95 42.82-24.24 72.95-24.24m.55-2h-.55c-47.51 0-85.86 22.19-85.71 49.64-.15 27.45 38.2 49.64 85.71 49.64h.59c47.51 0 85.86-22.19 85.71-49.64.15-27.45-38.2-49.64-85.71-49.64z" fill="url(#D)"/><path d="m535.11 211.17c-9.67-5.59-25.3-5.63-34.93-.1l-19.27 11.13c-1.93-1-3.85-2-5.77-3.1s-3.83-2.13-5.75-3.11l19.61-11.35c9.47-5.65 9.17-14.69-.67-20.2-9.62-5.38-24.86-5.41-34.42-.06l-46.02 26.62c-9.47 5.65-9.17 14.69.67 20.2 9.63 5.38 24.86 5.41 34.42.06l19.27-11.13c1.93 1 3.86 2 5.77 3.11s3.83 2.12 5.76 3.11l-19.66 11.34c-9.47 5.65-9.17 14.69.68 20.2 9.62 5.38 24.85 5.41 34.41.06l46.06-26.59c9.58-5.59 9.51-14.61-.16-20.19zm-53.36-22.58c5.71 3.29 5.75 8.61.1 11.9l-20.41 11.78a111 111 0 0 0 -19.1-6.19 62.48 62.48 0 0 0 -9.21-1.36l28-16.18c5.7-3.26 14.87-3.24 20.62.05zm-46 38.49c-5.68 3.28-14.93 3.26-20.64-.05s-5.75-8.63-.07-11.91l4.62-2.67c4.08-2.35 11.2-2.71 19.06-.95a97.46 97.46 0 0 1 15.49 4.92zm25.62 26.64c-5.71-3.3-5.75-8.62-.09-11.91l20.44-11.81a111.28 111.28 0 0 0 19.1 6.19 62.48 62.48 0 0 0 9.21 1.36l-28 16.18c-5.68 3.26-14.89 3.24-20.6 0zm43-22.94a96.44 96.44 0 0 1 -15.49-4.91l18.43-10.65c5.69-3.27 14.93-3.26 20.65.05s5.74 8.63.06 11.91l-4.62 2.67c-4 2.34-11.12 2.7-18.97.93z" fill="#cfdbe6" opacity=".4"/><path d="m491.87 189.79-8.64-5.07-18.28 11a.68.68 0 0 0 .35 1.27h14.15a.6.6 0 0 0 .35-.1z" fill="url(#E)" opacity=".2"/><path d="m480.43 196.05-3.2-2.12a1.41 1.41 0 0 0 .84-1.14v-20.07l.68-3a50.83 50.83 0 0 0 .9-17.17 2.15 2.15 0 0 0 -1.58-1.83s-1.46-.44-4.54-1.13v-.28a4 4 0 0 0 2.2-3.57v-3.3a4 4 0 0 0 -4-4 4 4 0 0 0 -4 4v3.3a4 4 0 0 0 2 3.45v.4c-3.09.69-4.54 1.13-4.54 1.13a2.17 2.17 0 0 0 -1.59 1.83 51.09 51.09 0 0 0 .9 17.17l.69 3v20.06a1.45 1.45 0 0 0 .85 1.14l-3.04 2.08a.33.33 0 0 0 0 .57 3.07 3.07 0 0 0 3.05 0l3.23-1.84v-.47a3.52 3.52 0 0 0 .87-.35 1.43 1.43 0 0 0 .84-1.14v-15.64a.68.68 0 0 1 .6-.69.66.66 0 0 1 .72.66v15.68a1.41 1.41 0 0 0 .84 1.14 3.26 3.26 0 0 0 .9.36v.46l3.23 1.84a3.07 3.07 0 0 0 3 0 .29.29 0 0 0 .15-.53z" fill="#2b3d7c"/><path d="m470.9 155 58.1 33.06-57.33 33.09-57.76-33.09zm0 0 .79 66.19m-57.76-33.09h115.07" fill="none" stroke="url(#F)" stroke-miterlimit="10" stroke-width="3"/><path d="m434.55 221.37-8.65-5.07-18.28 11a.68.68 0 0 0 .36 1.27h14.15a.73.73 0 0 0 .35-.09z" fill="url(#G)" opacity=".2"/><path d="m423.1 227.63-3.2-2.12a1.48 1.48 0 0 0 .84-1.15v-20.06l.69-3a51 51 0 0 0 .9-17.16 2.17 2.17 0 0 0 -1.59-1.84s-1.45-.44-4.54-1.12v-.29a4 4 0 0 0 2.2-3.57v-3.32a4 4 0 0 0 -4-4 4 4 0 0 0 -4 4v3.29a4 4 0 0 0 2 3.46v.4c-3.08.68-4.53 1.12-4.53 1.12a2.16 2.16 0 0 0 -1.59 1.84 51 51 0 0 0 .9 17.16l.69 3v20.06a1.44 1.44 0 0 0 .84 1.15l-3.11 2.06a.34.34 0 0 0 0 .57 3 3 0 0 0 3.05 0l3.23-1.84v-.47a3.36 3.36 0 0 0 .87-.34 1.44 1.44 0 0 0 .84-1.15v-15.6a.68.68 0 0 1 .59-.69.66.66 0 0 1 .73.66v15.68a1.48 1.48 0 0 0 .84 1.15 3.66 3.66 0 0 0 .91.35v.46l3.23 1.84a3 3 0 0 0 3 0 .29.29 0 0 0 .21-.53z" fill="#2b3d7c"/><path d="m492.32 253-8.65-5.07-18.27 11a.68.68 0 0 0 .35 1.27h14.15a.73.73 0 0 0 .35-.09z" fill="url(#H)" opacity=".2"/><path d="m480.88 259.21-3.2-2.11a1.44 1.44 0 0 0 .84-1.14v-20.08l.69-3a51 51 0 0 0 .9-17.16 2.16 2.16 0 0 0 -1.59-1.84s-1.45-.43-4.54-1.12v-.29a4 4 0 0 0 2.2-3.56v-3.3a4 4 0 0 0 -4-4 4 4 0 0 0 -4 4v3.3a4 4 0 0 0 2 3.45v.4c-3.08.69-4.53 1.12-4.53 1.12a2.16 2.16 0 0 0 -1.59 1.84 51 51 0 0 0 .9 17.16l.69 3v20.06a1.44 1.44 0 0 0 .84 1.14l-3.11 2.06a.34.34 0 0 0 0 .57 3 3 0 0 0 3.05 0l3.23-1.84v-.47a3.36 3.36 0 0 0 .87-.34 1.48 1.48 0 0 0 .85-1.14v-15.63a.68.68 0 0 1 .59-.69.67.67 0 0 1 .73.66v15.68a1.48 1.48 0 0 0 .85 1.14 3.44 3.44 0 0 0 .9.35v.46l3.23 1.84a3 3 0 0 0 3.05 0 .29.29 0 0 0 .15-.52z" fill="#2b3d7c"/><path d="m549.2 221.37-8.65-5.07-18.28 11a.68.68 0 0 0 .35 1.27h14.16a.67.67 0 0 0 .34-.09z" fill="url(#I)" opacity=".2"/><path d="m537.75 227.63-3.2-2.12a1.44 1.44 0 0 0 .84-1.15v-20.06l.68-3a50.77 50.77 0 0 0 .9-17.16 2.16 2.16 0 0 0 -1.58-1.84s-1.45-.44-4.54-1.12v-.29a4 4 0 0 0 2.2-3.57v-3.32a4 4 0 0 0 -4-4 4 4 0 0 0 -4 4v3.29a4 4 0 0 0 2 3.46v.4c-3.09.68-4.54 1.12-4.54 1.12a2.19 2.19 0 0 0 -1.51 1.83 51 51 0 0 0 .91 17.16l.68 3v20.06a1.48 1.48 0 0 0 .85 1.15l-3.11 2.06a.33.33 0 0 0 0 .57 3 3 0 0 0 3 0l3.23-1.84v-.47a3.5 3.5 0 0 0 .87-.34 1.44 1.44 0 0 0 .84-1.15v-15.59a.68.68 0 0 1 .6-.69.66.66 0 0 1 .73.66v15.68a1.44 1.44 0 0 0 .84 1.15 3.74 3.74 0 0 0 .9.35v.46l3.23 1.84a3 3 0 0 0 3 0 .29.29 0 0 0 .18-.53z" fill="#2b3d7c"/><path d="m250.84 278.88 86.02-49.62 125.05 72.2-86.15 49.7z" fill="url(#J)" opacity=".2"/><ellipse cx="314.85" cy="315.84" fill="url(#K)" rx="85.98" ry="49.64"/><ellipse cx="314.85" cy="312.16" fill="#fff" rx="85.98" ry="49.64"/><path d="m315.13 264.52c30.13 0 58.08 9.29 73 24.25 7.07 7.11 10.79 15.2 10.75 23.4s-3.68 16.28-10.75 23.39c-14.88 15-42.83 24.25-73 24.25h-.55c-30.13 0-58.08-9.29-73-24.25-7.07-7.12-10.79-15.2-10.75-23.41s3.68-16.27 10.76-23.39c14.87-14.95 42.82-24.24 72.95-24.24h.55m0-2h-.55c-47.51 0-85.86 22.19-85.71 49.64-.15 27.45 38.2 49.65 85.71 49.65h.55c47.51 0 85.86-22.2 85.71-49.65.15-27.45-38.2-49.64-85.71-49.64z" fill="url(#L)"/><path d="m378.27 302.18c-9.67-5.59-25.3-5.63-34.93-.1l-19.27 11.13q-2.9-1.45-5.77-3.1c-1.91-1.11-3.83-2.13-5.75-3.11l19.65-11.35c9.47-5.65 9.17-14.69-.67-20.19-9.62-5.39-24.86-5.41-34.42-.07l-46.06 26.61c-9.47 5.65-9.17 14.69.67 20.2 9.63 5.38 24.86 5.41 34.42.06l19.27-11.12c1.93 1 3.86 2 5.77 3.1s3.83 2.12 5.76 3.11l-19.66 11.34c-9.47 5.65-9.17 14.7.68 20.2 9.62 5.38 24.85 5.41 34.41.06l46.06-26.59c9.57-5.58 9.51-14.6-.16-20.18zm-53.36-22.58c5.71 3.29 5.75 8.62.1 11.9l-20.41 11.78a111 111 0 0 0 -19.1-6.19 62.48 62.48 0 0 0 -9.21-1.36l28-16.18c5.71-3.26 14.91-3.24 20.62.05zm-46 38.49c-5.68 3.28-14.93 3.26-20.64 0s-5.75-8.64-.07-11.92l4.62-2.66c4.08-2.36 11.2-2.71 19.06-1a97.46 97.46 0 0 1 15.49 4.92zm25.62 26.64c-5.71-3.3-5.75-8.62-.09-11.9l20.4-11.78a112.15 112.15 0 0 0 19.1 6.18 61.17 61.17 0 0 0 9.21 1.36l-28 16.18c-5.68 3.27-14.89 3.24-20.6 0zm43-22.93a97.46 97.46 0 0 1 -15.49-4.92l18.43-10.64c5.69-3.28 14.93-3.26 20.65 0s5.74 8.63.06 11.91l-4.62 2.67c-4 2.39-11.12 2.74-18.97.98z" fill="#cfdbe6" opacity=".4"/><path d="m335 280.8-8.64-5.07-18.28 11a.68.68 0 0 0 .35 1.27h14.16a.67.67 0 0 0 .34-.09z" fill="url(#M)" opacity=".2"/><path d="m323.59 287.06-3.2-2.12a1.44 1.44 0 0 0 .84-1.15v-20.06l.68-3a50.77 50.77 0 0 0 .9-17.16 2.16 2.16 0 0 0 -1.58-1.84s-1.45-.44-4.54-1.12v-.29a4 4 0 0 0 2.2-3.57v-3.29a4 4 0 0 0 -4-4 4 4 0 0 0 -4 4v3.29a4 4 0 0 0 2 3.45v.41c-3.09.68-4.54 1.12-4.54 1.12a2.19 2.19 0 0 0 -1.59 1.84 51 51 0 0 0 .9 17.16l.69 3v20.06a1.48 1.48 0 0 0 .85 1.15l-3.06 2.06a.33.33 0 0 0 0 .57 3 3 0 0 0 3 0l3.23-1.84v-.47a3.5 3.5 0 0 0 .87-.34 1.46 1.46 0 0 0 .84-1.15v-15.63a.68.68 0 0 1 .6-.69.66.66 0 0 1 .72.66v15.68a1.44 1.44 0 0 0 .84 1.15 3.59 3.59 0 0 0 .9.35v.46l3.23 1.84a3 3 0 0 0 3.05 0 .29.29 0 0 0 .17-.53z" fill="#2b3d7c"/><path d="m314.06 246 58.12 33.1-57.33 33.09-57.76-33.09zm0 0 .79 66.19m-57.76-33.09h115.09" fill="none" stroke="url(#N)" stroke-miterlimit="10" stroke-width="3"/><path d="m277.71 312.38-8.65-5.07-18.28 11a.68.68 0 0 0 .36 1.27h14.15a.73.73 0 0 0 .35-.09z" fill="url(#O)" opacity=".2"/><path d="m266.26 318.64-3.2-2.11a1.48 1.48 0 0 0 .84-1.15v-20.07l.69-3a51 51 0 0 0 .9-17.16 2.17 2.17 0 0 0 -1.59-1.84s-1.45-.43-4.54-1.12v-.29a4 4 0 0 0 2.2-3.56v-3.34a4 4 0 0 0 -4-4 4 4 0 0 0 -4 4v3.3a4 4 0 0 0 2 3.45v.4c-3.08.69-4.53 1.12-4.53 1.12a2.16 2.16 0 0 0 -1.59 1.84 51 51 0 0 0 .9 17.16l.69 3v20.06a1.44 1.44 0 0 0 .84 1.15l-3.11 2.06a.34.34 0 0 0 0 .57 3 3 0 0 0 3 0l3.23-1.84v-.47a3.36 3.36 0 0 0 .87-.34 1.44 1.44 0 0 0 .84-1.15v-15.59a.68.68 0 0 1 .59-.69.67.67 0 0 1 .73.66v15.68a1.48 1.48 0 0 0 .84 1.15 3.66 3.66 0 0 0 .91.35v.46l3.23 1.84a3 3 0 0 0 3 0 .29.29 0 0 0 .26-.53z" fill="#2b3d7c"/><path d="m335.48 344-8.65-5.06-18.27 11a.69.69 0 0 0 .35 1.28h14.15a.74.74 0 0 0 .35-.1z" fill="url(#P)" opacity=".2"/><path d="m324 350.22-3.2-2.11a1.43 1.43 0 0 0 .84-1.14v-20.07l.69-3a51.09 51.09 0 0 0 .9-17.17 2.13 2.13 0 0 0 -1.59-1.83s-1.45-.44-4.54-1.13v-.29a4 4 0 0 0 2.2-3.56v-3.3a4 4 0 0 0 -4-4 4 4 0 0 0 -4 4v3.3a4 4 0 0 0 2 3.45v.4c-3.08.69-4.53 1.13-4.53 1.13a2.13 2.13 0 0 0 -1.59 1.83 51.09 51.09 0 0 0 .9 17.17l.69 3v20.1a1.43 1.43 0 0 0 .84 1.14l-3.11 2.06a.33.33 0 0 0 0 .57 3.05 3.05 0 0 0 3 0l3.23-1.84v-.46a3.77 3.77 0 0 0 .87-.35 1.46 1.46 0 0 0 .85-1.14v-15.68a.67.67 0 0 1 .6-.68.65.65 0 0 1 .72.65v15.73a1.46 1.46 0 0 0 .85 1.14 3.13 3.13 0 0 0 .9.35v.46l3.23 1.84a3.07 3.07 0 0 0 3.05 0 .3.3 0 0 0 .2-.57z" fill="#2b3d7c"/><path d="m392.36 312.38-8.65-5.07-18.28 11a.68.68 0 0 0 .35 1.27h14.16a.67.67 0 0 0 .34-.09z" fill="url(#Q)" opacity=".2"/><path d="m380.91 318.64-3.2-2.11a1.44 1.44 0 0 0 .84-1.15v-20.07l.68-3a50.77 50.77 0 0 0 .9-17.16 2.16 2.16 0 0 0 -1.58-1.84s-1.45-.43-4.54-1.12v-.29a4 4 0 0 0 2.2-3.56v-3.34a4 4 0 0 0 -4-4 4 4 0 0 0 -4 4v3.3a4 4 0 0 0 2 3.45v.4c-3.09.69-4.54 1.12-4.54 1.12a2.19 2.19 0 0 0 -1.59 1.84 51 51 0 0 0 .91 17.16l.68 3v20.06a1.48 1.48 0 0 0 .85 1.15l-3.11 2.06a.33.33 0 0 0 0 .57 3 3 0 0 0 3 0l3.23-1.84v-.47a3.5 3.5 0 0 0 .87-.34 1.44 1.44 0 0 0 .84-1.15v-15.59a.68.68 0 0 1 .6-.69.67.67 0 0 1 .73.66v15.68a1.44 1.44 0 0 0 .84 1.15 3.74 3.74 0 0 0 .9.35v.46l3.23 1.84a3 3 0 0 0 3.05 0 .29.29 0 0 0 .21-.53z" fill="#2b3d7c"/><path d="m254 164.08v5.05l-4.86 2.82" fill="none" stroke="url(#R)" stroke-miterlimit="10" stroke-width="2"/></svg>