<?xml version="1.0" encoding="UTF-8"?>
<svg width="180px" height="180px" viewBox="0 0 180 180" version="1.1" xmlns="http://www.w3.org/2000/svg" xmlns:xlink="http://www.w3.org/1999/xlink">
    <defs></defs>
    <g id="Symbols" stroke="none" stroke-width="1" fill="none" fill-rule="evenodd">
        <g id="00_Assets/Logo/Mark/Gray" fill="#758796" fill-rule="nonzero">
            <path d="M141.17,1.19492002e-05 C119.763112,-0.0166065538 102.385152,17.3031886 102.33,38.7100119 L102.33,81.6300119 C98.33,81.9000119 94.24,82.0700119 90,82.0700119 C85.76,82.0700119 81.69,82.2400119 77.67,82.4800119 L77.67,38.7100119 C77.3297163,17.5049841 60.042758,0.49320935 38.835,0.49320935 C17.627242,0.49320935 0.340283719,17.5049841 0,38.7100119 L0,141.290012 C0.340283719,162.49504 17.627242,179.506815 38.835,179.506815 C60.042758,179.506815 77.3297163,162.49504 77.67,141.290012 L77.67,98.3700119 C81.67,98.1000119 85.76,97.9300119 90,97.9300119 C94.24,97.9300119 98.31,97.7600119 102.33,97.5200119 L102.33,141.290012 C102.670284,162.49504 119.957242,179.506815 141.165,179.506815 C162.372758,179.506815 179.659716,162.49504 180,141.290012 L180,38.7100119 C179.944855,17.3070948 162.572985,-0.0110887178 141.17,1.19492002e-05 Z M38.83,15.8600119 C51.4633521,15.8544543 61.7169152,26.076702 61.75,38.7100119 L61.75,84.1600119 C50.3878195,85.8064551 39.2922453,88.9434765 28.75,93.4900119 C24.1823384,95.494701 19.8824953,98.0611699 15.95,101.130012 L15.95,38.7100119 C15.9830344,26.0923062 26.2122618,15.8764913 38.83,15.8600119 Z M61.75,141.290012 C61.75,153.948378 51.4883665,164.210012 38.83,164.210012 C26.1716335,164.210012 15.91,153.948378 15.91,141.290012 L15.91,131.000012 C15.91,121.910012 23.11,113.300012 35.18,107.940012 C43.6847451,104.270845 52.6083571,101.661268 61.75,100.170012 L61.75,141.290012 Z M141.17,164.140012 C128.536648,164.14557 118.283085,153.923322 118.25,141.290012 L118.25,95.8400119 C129.61218,94.1935688 140.707755,91.0565474 151.25,86.5100119 C155.817662,84.5053229 160.117505,81.938854 164.05,78.8700119 L164.05,141.290012 C164.016966,153.907718 153.787738,164.123533 141.17,164.140012 Z M144.82,72.0000119 C136.315255,75.6691792 127.391643,78.2787563 118.25,79.7700119 L118.25,38.7100119 C118.25,26.0516455 128.511634,15.7900119 141.17,15.7900119 C153.828366,15.7900119 164.09,26.0516455 164.09,38.7100119 L164.09,49.0000119 C164.09,58.0500119 156.89,66.6600119 144.82,72.0000119 Z" id="Shape"></path>
        </g>
    </g>
</svg>