<?xml version="1.0" encoding="UTF-8"?>
<svg width="1020px" height="300px" viewBox="0 0 1020 300" version="1.1" xmlns="http://www.w3.org/2000/svg" xmlns:xlink="http://www.w3.org/1999/xlink">
    <defs>
        <linearGradient x1="6.31666667%" y1="93.94073%" x2="93.6833333%" y2="6.33402803%" id="linearGradient-1">
            <stop stop-color="#00AEE9" offset="0%"></stop>
            <stop stop-color="#69FABD" offset="100%"></stop>
        </linearGradient>
    </defs>
    <g id="Symbols" stroke="none" stroke-width="1" fill="none" fill-rule="evenodd">
        <g id="00_Assets/Logo/Horizontal/Full-Color">
            <g id="Harmony-logo-FC-horizontal">
                <path d="M201.17,60 C179.763112,59.9833815 162.385152,77.3031767 162.33,98.71 L162.33,141.63 C158.33,141.9 154.24,142.07 150,142.07 C145.76,142.07 141.69,142.24 137.67,142.48 L137.67,98.71 C137.329716,77.5049722 120.042758,60.4931974 98.835,60.4931974 C77.627242,60.4931974 60.3402837,77.5049722 60,98.71 L60,201.29 C60.3402837,222.495028 77.627242,239.506803 98.835,239.506803 C120.042758,239.506803 137.329716,222.495028 137.67,201.29 L137.67,158.37 C141.67,158.1 145.76,157.93 150,157.93 C154.24,157.93 158.31,157.76 162.33,157.52 L162.33,201.29 C162.670284,222.495028 179.957242,239.506803 201.165,239.506803 C222.372758,239.506803 239.659716,222.495028 240,201.29 L240,98.71 C239.944855,77.3070829 222.572985,59.9888993 201.17,60 Z M98.83,75.86 C111.463352,75.8544423 121.716915,86.07669 121.75,98.71 L121.75,144.16 C110.38782,145.806443 99.2922453,148.943465 88.75,153.49 C84.1823384,155.494689 79.8824953,158.061158 75.95,161.13 L75.95,98.71 C75.9830344,86.0922943 86.2122618,75.8764793 98.83,75.86 Z M121.75,201.29 C121.75,213.948366 111.488366,224.21 98.83,224.21 C86.1716335,224.21 75.91,213.948366 75.91,201.29 L75.91,191 C75.91,181.91 83.11,173.3 95.18,167.94 C103.684745,164.270833 112.608357,161.661256 121.75,160.17 L121.75,201.29 Z M201.17,224.14 C188.536648,224.145558 178.283085,213.92331 178.25,201.29 L178.25,155.84 C189.61218,154.193557 200.707755,151.056535 211.25,146.51 C215.817662,144.505311 220.117505,141.938842 224.05,138.87 L224.05,201.29 C224.016966,213.907706 213.787738,224.123521 201.17,224.14 Z M204.82,132 C196.315255,135.669167 187.391643,138.278744 178.25,139.77 L178.25,98.71 C178.25,86.0516335 188.511634,75.79 201.17,75.79 C213.828366,75.79 224.09,86.0516335 224.09,98.71 L224.09,109 C224.09,118.05 216.89,126.66 204.82,132 Z" id="Shape" fill="url(#linearGradient-1)" fill-rule="nonzero"></path>
                <path d="M748.35,125.42 C731.179668,125.415955 715.697789,135.756001 709.124185,151.618158 C702.55058,167.480315 706.179953,185.740457 718.319781,197.883146 C730.459609,210.025834 748.718896,213.659509 764.582601,207.089642 C780.446307,200.519775 790.79,185.040332 790.79,167.87 C790.790001,144.429417 771.790582,125.425522 748.35,125.42 Z M748.35,196.55 C736.741442,196.566184 726.267123,189.585278 721.814436,178.864622 C717.361749,168.143967 719.808294,155.796545 728.012495,147.583753 C736.216697,139.370961 748.561551,136.911495 759.286861,141.35296 C770.012171,145.794425 777.004035,156.261431 777,167.87 C777.000009,183.697818 764.17781,196.533444 748.35,196.55 Z M490.15,125.72 C488.325311,125.72 486.575356,126.444855 485.285105,127.735105 C483.994855,129.025356 483.27,130.775311 483.27,132.6 L483.27,136.65 C466.360786,121.066062 440.117391,121.779423 424.079742,138.258939 C408.042093,154.738456 408.042093,180.991544 424.079742,197.471061 C440.117391,213.950577 466.360786,214.663938 483.27,199.08 L483.27,203.08 C483.27,206.879719 486.350281,209.96 490.15,209.96 C493.949719,209.96 497.03,206.879719 497.03,203.08 L497.03,132.6 C497.03,130.775311 496.305145,129.025356 495.014895,127.735105 C493.724644,126.444855 491.974689,125.72 490.15,125.72 Z M454.58,196.55 C442.975068,196.549999 432.513021,189.558823 428.072941,178.836877 C423.632861,168.114931 426.089289,155.774066 434.296645,147.569571 C442.504001,139.365075 454.845721,136.91295 465.566119,141.356767 C476.286516,145.800585 483.274045,156.265069 483.27,167.87 C483.27,175.478142 480.246994,182.774528 474.866287,188.153359 C469.485581,193.53219 462.188141,196.552653 454.58,196.55 Z M563.07,132.31 C563.064492,136.101913 559.991913,139.174492 556.2,139.18 C556.05,139.18 555.92,139.18 555.78,139.18 C555.64,139.18 555.47,139.18 555.31,139.18 C547.700126,139.177346 540.40117,142.199182 535.020176,147.580176 C529.639182,152.96117 526.617346,160.260126 526.62,167.87 C526.26,169.29 526.41,191.12 526.52,204.03 C526.277652,205.851023 525.314007,207.498387 523.845473,208.602138 C522.376939,209.705888 520.526603,210.173515 518.71,209.9 C515.271696,209.285767 512.790808,206.262053 512.86,202.77 L512.86,132.6 C512.860012,130.711094 513.636636,128.905275 515.007744,127.606032 C516.378851,126.30679 518.223827,125.628416 520.11,125.73 C523.851957,126.060655 526.697716,129.234266 526.62,132.99 L526.62,136.65 C534.428388,129.428069 544.673873,125.417724 555.31,125.42 L556.2,125.42 C558.025508,125.419992 559.775957,126.146539 561.064908,127.439242 C562.35386,128.731946 563.075314,130.4845 563.07,132.31 Z M873.69,161 L873.69,203.1 C873.69,206.899719 870.609719,209.98 866.81,209.98 C863.014187,209.974483 859.939996,206.895817 859.94,203.1 L859.94,196.22 L859.94,161 C859.932349,155.042086 857.452768,149.354473 853.09279,145.294007 C848.732812,141.23354 842.883401,139.164326 836.94,139.58 C825.54,140.34 816.94,150.33 816.94,161.75 L816.94,170.12 L816.94,196.22 L816.94,203.1 C816.94,206.899719 813.859719,209.98 810.06,209.98 C806.260281,209.98 803.18,206.899719 803.18,203.1 L803.18,132.64 C803.18,128.840281 806.260281,125.76 810.06,125.76 C813.859719,125.76 816.94,128.840281 816.94,132.64 L816.94,133.29 C822.573568,128.768018 829.494345,126.146034 836.71,125.8 C846.347719,125.320668 855.760199,128.815536 862.749661,135.468566 C869.739123,142.121596 873.693695,151.350369 873.69,161 Z M398,96.79 L398,203.21 C397.859898,206.861407 394.859094,209.74928 391.205,209.74928 C387.550906,209.74928 384.550102,206.861407 384.41,203.21 L384.41,155 L313.59,155 L313.59,203.26 C313.449898,206.911407 310.449094,209.79928 306.795,209.79928 C303.140906,209.79928 300.140102,206.911407 300,203.26 L300,96.79 C300.140102,93.1385933 303.140906,90.2507202 306.795,90.2507202 C310.449094,90.2507202 313.449898,93.1385933 313.59,96.79 L313.59,143.21 L384.38,143.21 L384.38,96.79 C384.520102,93.1385933 387.520906,90.2507202 391.175,90.2507202 C394.829094,90.2507202 397.829898,93.1385933 397.97,96.79 L398,96.79 Z M693.49,164.25 L693.49,203.09 C693.49,206.889719 690.409719,209.97 686.61,209.97 C682.810281,209.97 679.73,206.889719 679.73,203.09 L679.73,167.7 L679.73,158.39 C679.888961,151.424241 676.263672,144.918496 670.256248,141.388919 C664.248823,137.859342 656.801177,137.859342 650.793752,141.388919 C644.786328,144.918496 641.161039,151.424241 641.32,158.39 L641.32,203.09 C641.32,206.889719 638.239719,209.97 634.44,209.97 C630.640281,209.97 627.56,206.889719 627.56,203.09 L627.56,167.7 L627.56,158.39 C627.718961,151.424241 624.093672,144.918496 618.086248,141.388919 C612.078823,137.859342 604.631177,137.859342 598.623752,141.388919 C592.616328,144.918496 588.991039,151.424241 589.15,158.39 L589.15,203.09 C589.15,206.889719 586.069719,209.97 582.27,209.97 C578.470281,209.97 575.39,206.889719 575.39,203.09 L575.39,132.64 C575.337335,129.002184 578.129908,125.954077 581.758424,125.688835 C585.386939,125.423592 588.593087,128.033196 589.07,131.64 C603.495271,121.206739 623.603445,124.145183 634.44,138.27 C643.035227,127.074371 657.809506,122.601453 671.171174,127.149624 C684.532842,131.697796 693.510082,144.255481 693.49,158.37 L693.49,164.25 Z M959.38,135.65 L913,236 C911.181787,239.117991 907.290895,240.342313 904.014845,238.827302 C900.738794,237.31229 899.151786,233.55471 900.35,230.15 L912.82,203.15 L881.59,135.64 C880.228723,133.34229 880.293488,130.470215 881.756953,128.236202 C883.220418,126.002189 885.82754,124.79557 888.477738,125.125712 C891.127937,125.455854 893.359349,127.26522 894.23,129.79 L920.5,186.56 L946.76,129.79 C947.630651,127.26522 949.862063,125.455854 952.512262,125.125712 C955.16246,124.79557 957.769582,126.002189 959.233047,128.236202 C960.696512,130.470215 960.761277,133.34229 959.4,135.64 L959.38,135.65 Z" id="Shape" fill="#555B68" fill-rule="nonzero"></path>
                <rect id="Rectangle-path" x="300" y="60" width="660" height="180"></rect>
                <rect id="Rectangle-path" x="0" y="0" width="1020" height="300"></rect>
            </g>
        </g>
    </g>
</svg>