<?xml version="1.0" encoding="UTF-8"?>
<svg width="48px" height="48px" viewBox="0 0 48 48" version="1.1" xmlns="http://www.w3.org/2000/svg" xmlns:xlink="http://www.w3.org/1999/xlink">
    <defs>
        <linearGradient x1="0%" y1="100%" x2="100%" y2="0%" id="linearGradient-1">
            <stop stop-color="#00AEE9" offset="0%"></stop>
            <stop stop-color="#69FABD" offset="100%"></stop>
        </linearGradient>
    </defs>
    <g id="Symbols" stroke="none" stroke-width="1" fill="none" fill-rule="evenodd">
        <g id="02_Components/Desktop/Card/Transparent/Roadmap" fill="url(#linearGradient-1)">
            <path d="M24,0 C27.3125166,0 30.4296729,0.62499375 33.3515625,1.875 C36.2734521,3.12500625 38.8203016,4.83592664 40.9921875,7.0078125 C43.1640734,9.17969836 44.8749938,11.7265479 46.125,14.6484375 C47.3750062,17.5703271 48,20.6874834 48,24 C48,27.3125166 47.3750062,30.4296729 46.125,33.3515625 C44.8749938,36.2734521 43.1640734,38.8203016 40.9921875,40.9921875 C38.8203016,43.1640734 36.2734521,44.8749938 33.3515625,46.125 C30.4296729,47.3750062 27.3125166,48 24,48 C20.6874834,48 17.5703271,47.3750062 14.6484375,46.125 C11.7265479,44.8749938 9.17969836,43.1640734 7.0078125,40.9921875 C4.83592664,38.8203016 3.12500625,36.2734521 1.875,33.3515625 C0.62499375,30.4296729 0,27.3125166 0,24 C0,20.6874834 0.62499375,17.5703271 1.875,14.6484375 C3.12500625,11.7265479 4.83592664,9.17969836 7.0078125,7.0078125 C9.17969836,4.83592664 11.7265479,3.12500625 14.6484375,1.875 C17.5703271,0.62499375 20.6874834,0 24,0 Z M24,45.046875 C26.9062645,45.046875 29.6327998,44.492193 32.1796875,43.3828125 C34.7265752,42.273432 36.945303,40.7656345 38.8359375,38.859375 C40.726572,36.9531155 42.226557,34.7265752 43.3359375,32.1796875 C44.445318,29.6327998 45,26.9062645 45,24 C45,21.0937355 44.445318,18.3672002 43.3359375,15.8203125 C42.226557,13.2734248 40.726572,11.054697 38.8359375,9.1640625 C36.945303,7.27342805 34.7265752,5.77344305 32.1796875,4.6640625 C29.6327998,3.55468195 26.9062645,3 24,3 C21.0937355,3 18.3672002,3.55468195 15.8203125,4.6640625 C13.2734248,5.77344305 11.054697,7.27342805 9.1640625,9.1640625 C7.27342805,11.054697 5.77344305,13.2734248 4.6640625,15.8203125 C3.55468195,18.3672002 3,21.0937355 3,24 C3,26.9062645 3.55468195,29.6327998 4.6640625,32.1796875 C5.77344305,34.7265752 7.27342805,36.9531155 9.1640625,38.859375 C11.054697,40.7656345 13.2734248,42.273432 15.8203125,43.3828125 C18.3672002,44.492193 21.0937355,45.046875 24,45.046875 Z M33.5625,15.234375 C33.8750016,14.9218734 34.234373,14.765625 34.640625,14.765625 C35.046877,14.765625 35.4062484,14.9218734 35.71875,15.234375 C36.0000014,15.5156264 36.140625,15.8671854 36.140625,16.2890625 C36.140625,16.7109396 36.0000014,17.0624986 35.71875,17.34375 L20.765625,32.390625 C20.7343748,32.4218752 20.7031252,32.4531248 20.671875,32.484375 C20.6406248,32.5156252 20.6093752,32.5468748 20.578125,32.578125 C20.2968736,32.8906266 19.9453146,33.046875 19.5234375,33.046875 C19.1015604,33.046875 18.7500014,32.8906266 18.46875,32.578125 L11.015625,25.171875 C10.7343736,24.8906236 10.59375,24.5390646 10.59375,24.1171875 C10.59375,23.6953104 10.7343736,23.3437514 11.015625,23.0625 C11.3281266,22.7499984 11.687498,22.59375 12.09375,22.59375 C12.500002,22.59375 12.8593734,22.7499984 13.171875,23.0625 L19.5,29.390625 L33.5625,15.234375 Z" id="Check---simple-line-icons"></path>
        </g>
    </g>
</svg>