<?xml version="1.0" encoding="UTF-8"?>
<svg width="36px" height="36px" viewBox="0 0 36 36" version="1.1" xmlns="http://www.w3.org/2000/svg" xmlns:xlink="http://www.w3.org/1999/xlink">
    <defs></defs>
    <g id="00_Assets/Icon/Continue" stroke="none" stroke-width="1" fill="none" fill-rule="evenodd">
        <path d="M18,0.25 C20.4843874,0.25 22.8222547,0.718745312 25.0136719,1.65625 C27.2050891,2.59375469 29.1152262,3.87694498 30.7441406,5.50585938 C32.373055,7.13477377 33.6562453,9.04491092 34.59375,11.2363281 C35.5312547,13.4277453 36,15.7656126 36,18.25 C36,20.7343874 35.5312547,23.0722547 34.59375,25.2636719 C33.6562453,27.4550891 32.373055,29.3652262 30.7441406,30.9941406 C29.1152262,32.623055 27.2050891,33.9062453 25.0136719,34.84375 C22.8222547,35.7812547 20.4843874,36.25 18,36.25 C15.5156126,36.25 13.1777453,35.7812547 10.9863281,34.84375 C8.79491092,33.9062453 6.88477377,32.623055 5.25585938,30.9941406 C3.62694498,29.3652262 2.34375469,27.4550891 1.40625,25.2636719 C0.468745313,23.0722547 0,20.7343874 0,18.25 C0,15.7656126 0.468745313,13.4277453 1.40625,11.2363281 C2.34375469,9.04491092 3.62694498,7.13477377 5.25585938,5.50585938 C6.88477377,3.87694498 8.79491092,2.59375469 10.9863281,1.65625 C13.1777453,0.718745312 15.5156126,0.25 18,0.25 Z M18,34.0351562 C20.1796984,34.0351562 22.2245998,33.6191448 24.1347656,32.7871094 C26.0449314,31.955074 27.7089773,30.8242259 29.1269531,29.3945312 C30.544929,27.9648366 31.6699177,26.2949314 32.5019531,24.3847656 C33.3339885,22.4745998 33.75,20.4296984 33.75,18.25 C33.75,16.0703016 33.3339885,14.0254002 32.5019531,12.1152344 C31.6699177,10.2050686 30.544929,8.54102271 29.1269531,7.12304688 C27.7089773,5.70507104 26.0449314,4.58008229 24.1347656,3.74804688 C22.2245998,2.91601146 20.1796984,2.5 18,2.5 C15.8203016,2.5 13.7754002,2.91601146 11.8652344,3.74804688 C9.95506857,4.58008229 8.29102271,5.70507104 6.87304688,7.12304688 C5.45507104,8.54102271 4.33008229,10.2050686 3.49804688,12.1152344 C2.66601146,14.0254002 2.25,16.0703016 2.25,18.25 C2.25,20.4296984 2.66601146,22.4745998 3.49804688,24.3847656 C4.33008229,26.2949314 5.45507104,27.9648366 6.87304688,29.3945312 C8.29102271,30.8242259 9.95506857,31.955074 11.8652344,32.7871094 C13.7754002,33.6191448 15.8203016,34.0351562 18,34.0351562 Z M18.703125,11.4648438 C18.9375012,11.2304676 19.2070297,11.1132812 19.5117188,11.1132812 C19.8164078,11.1132812 20.0859363,11.2304676 20.3203125,11.4648438 L26.9648438,18.2851562 L20.3203125,25.1054688 C20.2031244,25.1992192 20.0742195,25.2753903 19.9335938,25.3339844 C19.792968,25.3925784 19.6523445,25.421875 19.5117188,25.421875 C19.371093,25.421875 19.2304695,25.3925784 19.0898438,25.3339844 C18.949218,25.2753903 18.8203131,25.1992192 18.703125,25.1054688 C18.4921864,24.8710926 18.3867188,24.601564 18.3867188,24.296875 C18.3867188,23.992186 18.4921864,23.7226574 18.703125,23.4882812 L22.8515625,19.375 L10.125,19.375 C9.79687336,19.375 9.5273448,19.263673 9.31640625,19.0410156 C9.1054677,18.8183583 9,18.554689 9,18.25 C9,17.9218734 9.1054677,17.6523448 9.31640625,17.4414062 C9.5273448,17.2304677 9.79687336,17.125 10.125,17.125 L22.78125,17.125 L18.703125,13.046875 C18.4921864,12.8359364 18.3867188,12.5722672 18.3867188,12.2558594 C18.3867188,11.9394515 18.4921864,11.6757823 18.703125,11.4648438 Z" id="Arrow-right-circle---simple-line-icons" fill="#1B295E"></path>
    </g>
</svg>