<?xml version="1.0" encoding="UTF-8"?>
<svg width="120px" height="120px" viewBox="0 0 120 120" version="1.1" xmlns="http://www.w3.org/2000/svg" xmlns:xlink="http://www.w3.org/1999/xlink">
    <defs>
        <linearGradient x1="19.2356272%" y1="77.7421927%" x2="84.5465554%" y2="6.2855891%" id="linearGradient-1">
            <stop stop-color="#00AEE9" offset="0%"></stop>
            <stop stop-color="#69FABD" offset="100%"></stop>
        </linearGradient>
    </defs>
    <g id="Symbols" stroke="none" stroke-width="1" fill="none" fill-rule="evenodd">
        <g id="00_Assets/Icon/Feature/03" fill="url(#linearGradient-1)" fill-rule="nonzero">
            <g id="icon-03" transform="translate(0.000000, 5.625000)">
                <path d="M5.625,64.415625 C2.94937135,64.4104497 0.784055488,62.2381435 0.787504026,59.5625121 C0.790952563,56.8868807 2.96186085,54.7201633 5.63749396,54.7218851 C8.31312706,54.7236068 10.481245,56.8931163 10.48125,59.56875 C10.4760794,62.2471209 8.30337591,64.41563 5.625,64.415625 Z M5.625,57.534375 C4.50268064,57.539547 3.59656552,58.4526452 3.60000958,59.5749712 C3.60345364,60.6972972 4.51515564,61.6048171 5.63748561,61.603101 C6.75981558,61.6013849 7.66873808,60.6910813 7.66875,59.56875 C7.66875575,59.0275719 7.45313398,58.5086949 7.06958462,58.1269049 C6.68603526,57.7451149 6.16617231,57.5318811 5.625,57.534375 Z M25.03125,36.103125 C27.7068787,36.0979497 29.8721945,33.9256435 29.868746,31.2500121 C29.8652974,28.5743807 27.6943891,26.4076633 25.018756,26.4093851 C22.3431229,26.4111068 20.175005,28.5806163 20.175,31.25625 C20.1800116,33.9164285 22.3243156,36.0774523 24.984375,36.103125 L25.03125,36.103125 Z M25.03125,29.221875 C26.1535694,29.227047 27.0596845,30.1401452 27.0562404,31.2624712 C27.0527964,32.3847972 26.1410944,33.2923171 25.0187644,33.290601 C23.8964344,33.2888849 22.9875119,32.3785813 22.9875,31.25625 C22.9873116,30.1471789 23.8754924,29.2423187 24.984375,29.221875 L25.03125,29.221875 Z M33.553125,73.63125 C30.8762699,73.63125 28.70625,75.8012699 28.70625,78.478125 C28.70625,81.1549801 30.8762699,83.325 33.553125,83.325 C36.2299801,83.325 38.4,81.1549801 38.4,78.478125 C38.3975427,77.1852694 37.8796589,75.9467615 36.9610815,75.0369828 C36.0425042,74.1272041 34.7990694,73.6212642 33.50625,73.63125 L33.553125,73.63125 Z M33.553125,80.5125 C32.4295707,80.5125 31.51875,79.6016793 31.51875,78.478125 C31.51875,77.3545707 32.4295707,76.44375 33.553125,76.44375 C34.6766793,76.44375 35.5875,77.3545707 35.5875,78.478125 C35.5850831,79.025094 35.3635163,79.5482693 34.9723672,79.9306087 C34.5812182,80.3129481 34.0531322,80.5225416 33.50625,80.5125 L33.553125,80.5125 Z M52.415625,98.8125 C50.4497541,98.8087085 48.6755219,99.990504 47.9214632,101.806009 C47.1674045,103.621514 47.5822885,105.712545 48.9723717,107.102628 C50.3624549,108.492711 52.4534862,108.907595 54.2689911,108.153537 C56.084496,107.399478 57.2662915,105.625246 57.2625,103.659375 C57.2573414,100.98466 55.0903405,98.8176586 52.415625,98.8125 Z M52.415625,105.703125 C51.5881627,105.706921 50.8400649,105.211391 50.5207752,104.448002 C50.2014855,103.684613 50.3740184,102.804027 50.9577822,102.217573 C51.5415459,101.631119 52.4213299,101.454539 53.1861785,101.770316 C53.9510271,102.086092 54.4499913,102.831904 54.45,103.659375 C54.4449189,104.782346 53.5385613,105.692881 52.415625,105.703125 Z M76.275,78.6375 C74.3091291,78.6337085 72.5348969,79.815504 71.7808382,81.6310089 C71.0267795,83.4465138 71.4416635,85.5375451 72.8317467,86.9276283 C74.2218299,88.3177115 76.3128612,88.7325955 78.1283661,87.9785368 C79.943871,87.2244781 81.1256665,85.4502459 81.121875,83.484375 C81.1167164,80.8096595 78.9497155,78.6426586 76.275,78.6375 Z M76.275,85.528125 C75.4475377,85.5319207 74.6994399,85.0363908 74.3801502,84.2730021 C74.0608605,83.5096134 74.2333934,82.6290269 74.8171572,82.042573 C75.4009209,81.4561191 76.2807049,81.2795394 77.0455535,81.5953159 C77.8104021,81.9110924 78.3093663,82.656904 78.309375,83.484375 C78.3042939,84.6073465 77.3979363,85.5178809 76.275,85.528125 Z M82.115625,54.721875 C79.4387699,54.721875 77.26875,56.8918949 77.26875,59.56875 C77.26875,62.2456051 79.4387699,64.415625 82.115625,64.415625 C84.7924801,64.415625 86.9625,62.2456051 86.9625,59.56875 C86.9573414,56.8940345 84.7903405,54.7270336 82.115625,54.721875 Z M82.115625,61.603125 C80.9920707,61.603125 80.08125,60.6923043 80.08125,59.56875 C80.08125,58.4451957 80.9920707,57.534375 82.115625,57.534375 C83.2391793,57.534375 84.15,58.4451957 84.15,59.56875 C84.15,60.6923043 83.2391793,61.603125 82.115625,61.603125 Z M52.415625,32.6625 C54.3806471,32.6624963 56.1520023,31.4782921 56.9031049,29.6624846 C57.6542075,27.8466771 57.2370062,25.7571839 55.8461839,24.3690465 C54.4553616,22.9809092 52.3650661,22.5677463 50.5507134,23.3223563 C48.7363607,24.0769663 47.5555815,25.8506065 47.559375,27.815625 C47.5645456,30.4939959 49.7372491,32.662505 52.415625,32.6625 Z M52.415625,25.771875 C53.544357,25.771875 54.459375,26.686893 54.459375,27.815625 C54.459375,28.944357 53.544357,29.859375 52.415625,29.859375 C51.286893,29.859375 50.371875,28.944357 50.371875,27.815625 C50.371875,26.686893 51.286893,25.771875 52.415625,25.771875 Z M106.03125,28.33125 L89.259375,28.33125 C89.0751078,27.4028945 88.7086732,26.520265 88.18125,25.734375 L94.5,19.415625 C95.048833,18.8642032 95.0467343,17.9722705 94.4953125,17.4234375 C93.9438907,16.8746045 93.051958,16.8767032 92.503125,17.428125 L86.19375,23.746875 C83.7725718,22.1211969 80.6086782,22.1211969 78.1875,23.746875 L65.0625,10.621875 C64.5110782,10.073042 63.6191455,10.0751407 63.0703125,10.6265625 C62.5214795,11.1779843 62.5235782,12.069917 63.075,12.61875 L76.2,25.74375 C74.5617003,28.1713241 74.5617003,31.3505509 76.2,33.778125 L56.409375,53.578125 C55.6259524,53.0524875 54.7467495,52.686153 53.821875,52.5 L53.821875,36.496875 C53.821875,35.7202246 53.1922754,35.090625 52.415625,35.090625 C51.6389746,35.090625 51.009375,35.7202246 51.009375,36.496875 L51.009375,52.5 C50.2076069,52.6791903 49.4430977,52.996414 48.75,53.4375 L32.446875,36.740625 C32.1077977,36.3358236 31.570525,36.1550965 31.0557307,36.2726736 C30.5409363,36.3902507 30.1353999,36.7863119 30.0056873,37.2981832 C29.8759746,37.8100545 30.0439516,38.351449 30.440625,38.7 L46.640625,55.3125 C46.007394,56.1432111 45.5656063,57.1036191 45.346875,58.125 L14.503125,58.125 C13.7264746,58.125 13.096875,58.7545996 13.096875,59.53125 C13.096875,60.3079004 13.7264746,60.9375 14.503125,60.9375 L45.346875,60.9375 C45.5269914,61.8671104 45.8937578,62.7505389 46.425,63.534375 L38.746875,71.25 C38.3452119,71.6521628 38.2251409,72.2565789 38.4425869,72.7817316 C38.660033,73.3068843 39.1722344,73.6495001 39.740625,73.65 C40.1132553,73.6486507 40.4703264,73.5004326 40.734375,73.2375 L48.4125,65.559375 C49.19839,66.0867982 50.0810195,66.4532328 51.009375,66.6375 L51.009375,94.959375 C51.009375,95.7360254 51.6389746,96.365625 52.415625,96.365625 C53.1922754,96.365625 53.821875,95.7360254 53.821875,94.959375 L53.821875,66.6375 C54.8160365,66.4397459 55.7560401,66.0304926 56.578125,65.4375 L68.8875,78.0375 C69.1528988,78.3052909 69.5136067,78.4569905 69.890625,78.459375 C70.2429886,78.4489727 70.5781819,78.3048396 70.828125,78.05625 C71.0937863,77.793812 71.2433072,77.4359296 71.2433072,77.0625 C71.2433072,76.6890704 71.0937863,76.331188 70.828125,76.06875 L58.509375,63.39375 C58.9682105,62.6521379 59.2860473,61.8321191 59.446875,60.975 L73.678125,60.975 C74.4547754,60.975 75.084375,60.3454004 75.084375,59.56875 C75.084375,58.7920996 74.4547754,58.1625 73.678125,58.1625 L59.475,58.1625 C59.2905549,57.2357494 58.9275609,56.3537377 58.40625,55.565625 L78.225,35.746875 C80.6368395,37.3583531 83.7819105,37.3583531 86.19375,35.746875 L94.78125,44.334375 C95.0435323,44.599943 95.4017504,44.7486374 95.775,44.746875 C96.1488846,44.7519005 96.5083303,44.6026967 96.76875,44.334375 C97.0344113,44.071937 97.1839322,43.7140546 97.1839322,43.340625 C97.1839322,42.9671954 97.0344113,42.609313 96.76875,42.346875 L88.18125,33.75 C88.7069346,32.9631787 89.0732209,32.0809066 89.259375,31.153125 L106.03125,31.153125 C106.8079,31.153125 107.4375,30.5235254 107.4375,29.746875 C107.4375,28.9702246 106.8079,28.340625 106.03125,28.340625 L106.03125,28.33125 Z M52.415625,63.95625 C50.6364068,63.9600437 49.0302717,62.8911881 48.3467641,61.2484924 C47.6632565,59.6057967 48.0371169,57.7130868 49.2938735,56.4536447 C50.5506302,55.1942027 52.4425379,54.8163032 54.0866887,55.496303 C55.7308395,56.1763027 56.803121,57.7801528 56.803125,59.559375 C56.8056141,60.7254996 56.3447586,61.8448512 55.5219422,62.6711839 C54.6991258,63.4975167 53.5817496,63.9631412 52.415625,63.965625 L52.415625,63.95625 Z M79.246875,32.98125 C79.246875,32.98125 79.190625,32.878125 79.153125,32.83125 C79.0959054,32.7904413 79.0364365,32.752882 78.975,32.71875 C77.2567402,30.916791 77.2949925,28.0715855 79.0610753,26.3164716 C80.827158,24.5613577 83.6725466,24.5408322 85.4637657,26.2702851 C87.2549847,27.999738 87.3342793,30.8440955 85.6421943,32.6706555 C83.9501092,34.4972154 81.1079964,34.6352452 79.246875,32.98125 Z M99.496875,17.278125 C101.808971,17.2743175 103.796467,15.6379385 104.244074,13.3695799 C104.691682,11.1012213 103.474761,8.83252584 101.337418,7.95072612 C99.2000758,7.06892641 96.7374725,7.81956667 95.455409,9.74365512 C94.1733455,11.6677436 94.4288228,14.2295022 96.065625,15.8625 C96.9785309,16.7675094 98.2114042,17.2761538 99.496875,17.278125 Z M98.053125,10.9875 C98.8477561,10.1934678 100.135572,10.1937914 100.929804,10.9882229 C101.724036,11.7826544 101.724036,13.0704706 100.929804,13.8649021 C100.135572,14.6593336 98.8477561,14.6596572 98.053125,13.865625 C97.6712739,13.4840617 97.456728,12.966378 97.456728,12.4265625 C97.456728,11.886747 97.6712739,11.3690633 98.053125,10.9875 Z M57.534375,9.928125 C59.8464711,9.9243175 61.833967,8.2879385 62.2815743,6.01957989 C62.7291816,3.75122128 61.5122605,1.48252584 59.3749182,0.600726122 C57.2375758,-0.281073594 54.7749725,0.469566674 53.492909,2.39365512 C52.2108455,4.31774356 52.4663228,6.87950221 54.103125,8.5125 C55.01255,9.4227379 56.2476857,9.93231577 57.534375,9.928125 Z M56.1,3.646875 C56.4774303,3.26130509 56.9948253,3.04487842 57.534375,3.046875 C58.0765413,3.0455378 58.5966011,3.26166653 58.978125,3.646875 C59.7721572,4.44150605 59.7718336,5.72932223 58.9774021,6.52355411 C58.1829706,7.31778598 56.8951544,7.31778598 56.1007229,6.52355411 C55.3062914,5.72932223 55.3059678,4.44150605 56.1,3.646875 Z M102.0375,44.746875 C99.714497,44.7380098 97.7092355,46.3725191 97.2495296,48.6495988 C96.7898238,50.9266786 98.0039114,53.2111227 100.148411,54.1041747 C102.292911,54.9972267 104.769601,54.249764 106.062013,52.319455 C107.354426,50.3891461 107.102033,47.8144632 105.459375,46.171875 C104.560733,45.2615954 103.335376,44.7484985 102.05625,44.746875 L102.0375,44.746875 Z M103.471875,51.0375 C102.667102,51.8077498 101.398523,51.8077498 100.59375,51.0375 C100.20997,50.6588579 99.9938729,50.1422511 99.99375,49.603125 C99.9988826,48.4765259 100.910901,47.5645076 102.0375,47.559375 C102.576626,47.5594979 103.093233,47.7755949 103.471875,48.159375 C103.856199,48.5414932 104.072167,49.0611664 104.071875,49.603125 C104.076719,50.1395479 103.86753,50.6557728 103.490625,51.0375 L103.471875,51.0375 Z M117.84375,26.315625 C116.211296,24.6935256 113.660879,24.4490716 111.750025,25.7315497 C109.839171,27.0140279 109.099087,29.4669166 109.981739,31.5922492 C110.864391,33.7175817 113.124406,34.9245277 115.381604,34.4760114 C117.638803,34.0274951 119.265697,32.0482014 119.26875,29.746875 C119.275733,28.4577911 118.761888,27.2205057 117.84375,26.315625 Z M115.85625,31.18125 C115.051477,31.9514998 113.782898,31.9514998 112.978125,31.18125 C112.594345,30.8026079 112.378248,30.2860011 112.378125,29.746875 C112.383258,28.6202759 113.295276,27.7082576 114.421875,27.703125 C114.961001,27.7032479 115.477608,27.9193449 115.85625,28.303125 C116.240574,28.6852432 116.456542,29.2049164 116.45625,29.746875 C116.456127,30.2860011 116.24003,30.8026079 115.85625,31.18125 Z" id="Shape"></path>
            </g>
        </g>
    </g>
</svg>