<?xml version="1.0" encoding="UTF-8"?>
<svg width="120px" height="120px" viewBox="0 0 120 120" version="1.1" xmlns="http://www.w3.org/2000/svg" xmlns:xlink="http://www.w3.org/1999/xlink">
    <defs>
        <linearGradient x1="14.331977%" y1="84.9197175%" x2="83.1052933%" y2="12.3995409%" id="linearGradient-1">
            <stop stop-color="#00AEE9" offset="0%"></stop>
            <stop stop-color="#69FABD" offset="100%"></stop>
        </linearGradient>
    </defs>
    <g id="Symbols" stroke="none" stroke-width="1" fill="none" fill-rule="evenodd">
        <g id="00_Assets/Icon/Feature/02" fill="url(#linearGradient-1)" fill-rule="nonzero">
            <g id="icon-02" transform="translate(0.875000, 4.687500)">
                <path d="M114.46875,72.9 L99.759375,64.40625 L99.759375,46.59375 C99.7471424,45.4324179 99.1236292,44.3635383 98.11875,43.78125 L95.821875,42.459375 C94.2260093,41.540229 92.2614907,41.540229 90.665625,42.459375 L88.36875,43.78125 C87.3638708,44.3635383 86.7403576,45.4324179 86.728125,46.59375 L86.728125,56.90625 L84.46875,55.603125 L84.46875,26.915625 C84.4565174,25.7542929 83.8330042,24.6854133 82.828125,24.103125 L75.834375,20.0625 C74.2350956,19.1436001 72.2680294,19.1436001 70.66875,20.0625 L69.375,20.803125 L69.375,7.884375 C69.3627674,6.72304289 68.7392542,5.65416325 67.734375,5.071875 L60.73125,1.03125 C59.1353843,0.112104044 57.1708657,0.112104044 55.575,1.03125 L48.571875,5.071875 C47.5656154,5.6527778 46.9415972,6.72252332 46.93125,7.884375 L46.93125,13.21875 L45.6,12.459375 C44.0041343,11.540229 42.0396157,11.540229 40.44375,12.459375 L33.421875,16.5 C32.4156154,17.0809028 31.7915972,18.1506483 31.78125,19.3125 L31.78125,55.575 L29.521875,56.878125 L29.521875,49.44375 C29.5115278,48.2818983 28.8875096,47.2121528 27.88125,46.63125 L25.584375,45.3 C23.9885093,44.380854 22.0239907,44.380854 20.428125,45.3 L18.13125,46.63125 C17.1249904,47.2121528 16.5009722,48.2818983 16.490625,49.44375 L16.490625,64.44375 L1.78125,72.9 C0.767023549,73.4864052 0.142391906,74.5690763 0.142391906,75.740625 C0.142391906,76.9121737 0.767023549,77.9948448 1.78125,78.58125 L55.546875,109.621875 C57.1411811,110.546835 59.1088189,110.546835 60.703125,109.621875 L114.46875,78.58125 C115.482976,77.9948448 116.107608,76.9121737 116.107608,75.740625 C116.107608,74.5690763 115.482976,73.4864052 114.46875,72.9 Z M91.875,49.246875 L91.875,78.309375 L89.8125,77.11875 C89.6683385,77.0355224 89.5791297,76.8820833 89.578125,76.715625 L89.578125,47.925 L91.875,49.246875 Z M94.6875,49.246875 L96.984375,47.925 L96.984375,76.725 C96.9833703,76.8914583 96.8941615,77.0448974 96.75,77.128125 L94.6875,78.31875 L94.6875,49.246875 Z M93.28125,44.559375 C93.6921878,44.5584055 94.096215,44.6650687 94.453125,44.86875 L95.578125,45.525 L93.28125,46.846875 L90.9375,45.4875 L92.0625,44.83125 C92.4226665,44.6272055 92.8298027,44.5205746 93.24375,44.521875 L93.28125,44.559375 Z M41.5875,24.73125 L41.5875,72.99375 L34.81875,69.084375 C34.6745885,69.0011474 34.5853797,68.8477083 34.584375,68.68125 L34.584375,20.690625 L41.5875,24.73125 Z M44.4,72.99375 L44.4,24.73125 L46.875,23.2875 L46.875,71.55 L44.4,72.99375 Z M56.71875,13.284375 L56.71875,90.159375 L49.95,86.25 C49.8058385,86.1667724 49.7166297,86.0133333 49.715625,85.846875 L49.715625,9.234375 L56.71875,13.284375 Z M59.53125,13.284375 L66.5625,9.234375 L66.5625,85.884375 C66.5614953,86.0508333 66.4722865,86.2042724 66.328125,86.2875 L59.559375,90.196875 L59.53125,13.284375 Z M69.375,30.871875 L71.878125,32.315625 L71.878125,64.584375 L69.375,63.140625 L69.375,30.871875 Z M74.690625,64.575 L74.690625,32.315625 L81.684375,28.275 L81.684375,60.271875 C81.6833703,60.4383333 81.5941615,60.5917724 81.45,60.675 L74.690625,64.575 Z M72.075,22.5 C72.8025375,22.0777113 73.7005875,22.0777113 74.428125,22.5 L80.25,25.865625 L73.25625,29.90625 L69.375,27.61875 L69.375,24.046875 L72.075,22.5 Z M56.953125,3.440625 C57.6766946,3.0160651 58.5733054,3.0160651 59.296875,3.440625 L65.128125,6.80625 L58.125,10.846875 L51.121875,6.80625 L56.953125,3.440625 Z M41.821875,14.8875 C42.5485549,14.4745454 43.4389451,14.4745454 44.165625,14.8875 L46.875,16.471875 L46.875,20.04375 L42.965625,22.303125 L36,18.253125 L41.821875,14.8875 Z M21.5625,52.125 L21.5625,69.9375 L19.5,68.7375 C19.3513469,68.658862 19.260419,68.502466 19.265625,68.334375 L19.265625,50.79375 L21.5625,52.125 Z M26.671875,50.79375 L26.671875,68.34375 C26.677081,68.511841 26.5861531,68.668237 26.4375,68.746875 L24.375,69.946875 L24.375,52.134375 L26.671875,50.79375 Z M22.921875,47.390625 C23.3334254,47.3942296 23.7370751,47.5040223 24.09375,47.709375 L25.21875,48.35625 L23.00625,49.6875 L20.709375,48.35625 L21.834375,47.709375 C22.1905506,47.5028238 22.5945231,47.3929433 23.00625,47.390625 L22.921875,47.390625 Z M113.0625,76.14375 L59.296875,107.184375 C58.5727678,107.606952 57.6772322,107.606952 56.953125,107.184375 L3.1875,76.14375 C3.03884692,76.065112 2.94791899,75.908716 2.953125,75.740625 C2.94870644,75.5703001 3.03892228,75.4115202 3.1875,75.328125 L16.490625,67.65 L16.490625,68.34375 C16.5009722,69.5056017 17.1249904,70.5753472 18.13125,71.15625 L20.428125,72.4875 C22.0255198,73.4009096 23.9869802,73.4009096 25.584375,72.4875 L27.88125,71.15625 C28.8875096,70.5753472 29.5115278,69.5056017 29.521875,68.34375 L29.521875,60.121875 L31.78125,58.828125 L31.78125,68.68125 C31.795354,69.8420648 32.4183672,70.9100874 33.421875,71.49375 L40.415625,75.534375 C42.0164235,76.4475641 43.9804515,76.4475641 45.58125,75.534375 L46.875,74.79375 L46.875,85.884375 C46.8872326,87.0457071 47.5107458,88.1145867 48.515625,88.696875 L55.546875,92.8125 C57.1442698,93.7259096 59.1057302,93.7259096 60.703125,92.8125 L67.70625,88.771875 C68.7111292,88.1895867 69.3346424,87.1207071 69.346875,85.959375 L69.346875,66.384375 L70.66875,67.153125 C71.4561455,67.6046132 72.3486029,67.8406617 73.25625,67.8375 C74.1579442,67.8404685 75.0443059,67.6043211 75.825,67.153125 L82.828125,63.1125 C83.8316328,62.5288374 84.454646,61.4608148 84.46875,60.3 L84.46875,58.81875 L86.728125,60.121875 L86.728125,76.725 C86.742229,77.8858148 87.3652422,78.9538374 88.36875,79.5375 L90.665625,80.859375 C92.2599311,81.7843354 94.2275689,81.7843354 95.821875,80.859375 L98.11875,79.5375 C99.1222578,78.9538374 99.745271,77.8858148 99.759375,76.725 L99.759375,67.65 L113.0625,75.328125 C113.211078,75.4115202 113.301294,75.5703001 113.296875,75.740625 C113.302081,75.908716 113.211153,76.065112 113.0625,76.14375 Z M28.89375,8.15625 C26.7709055,8.15625 25.05,6.43534451 25.05,4.3125 C25.05,2.18965549 26.7709055,0.46875 28.89375,0.46875 C31.0165945,0.46875 32.7375,2.18965549 32.7375,4.3125 C32.7323464,6.43320614 31.0144561,8.15109638 28.89375,8.15625 Z M28.89375,3.28125 C28.3242064,3.28125 27.8625,3.74295635 27.8625,4.3125 C27.8625,4.88204365 28.3242064,5.34375 28.89375,5.34375 C29.4632936,5.34375 29.925,4.88204365 29.925,4.3125 C29.925,3.74295635 29.4632936,3.28125 28.89375,3.28125 Z M106.546875,33.28125 C104.986732,33.2850414 103.578276,32.3476501 102.979482,30.9069878 C102.380689,29.4663256 102.709749,27.8067568 103.812941,26.7035656 C104.916132,25.6003744 106.575701,25.2713136 108.016363,25.8701073 C109.457025,26.4689011 110.394416,27.8773567 110.390625,29.4375 C110.390631,31.5618664 108.671235,33.2854562 106.546875,33.290625 L106.546875,33.28125 Z M106.546875,28.396875 C106.125149,28.3930755 105.742832,28.6441925 105.578805,29.0327311 C105.414778,29.4212698 105.50148,29.8703901 105.798345,30.1699537 C106.09521,30.4695174 106.543527,30.5602806 106.933534,30.3997764 C107.323541,30.2392723 107.578108,29.859243 107.578125,29.4375 C107.573036,28.8700778 107.114297,28.4113393 106.546875,28.40625 L106.546875,28.396875 Z M6.234375,42.9375 C4.11153049,42.9375 2.390625,41.2165945 2.390625,39.09375 C2.390625,36.9709055 4.11153049,35.25 6.234375,35.25 C8.35721951,35.25 10.078125,36.9709055 10.078125,39.09375 C10.0781501,41.2144713 8.36444619,42.9365552 6.24375,42.946875 L6.234375,42.9375 Z M6.234375,38.0625 C5.66483135,38.0625 5.203125,38.5242064 5.203125,39.09375 C5.203125,39.6632936 5.66483135,40.125 6.234375,40.125 C6.80391865,40.125 7.265625,39.6632936 7.265625,39.09375 C7.2605365,38.5315052 6.80599476,38.0769635 6.24375,38.071875 L6.234375,38.0625 Z" id="Shape"></path>
            </g>
        </g>
    </g>
</svg>