<?xml version="1.0" encoding="UTF-8"?>
<svg width="120px" height="120px" viewBox="0 0 120 120" version="1.1" xmlns="http://www.w3.org/2000/svg" xmlns:xlink="http://www.w3.org/1999/xlink">
    <defs>
        <linearGradient x1="12.3885693%" y1="81.0135805%" x2="90.0201417%" y2="18.6454099%" id="linearGradient-1">
            <stop stop-color="#00AEE9" offset="0%"></stop>
            <stop stop-color="#69FABD" offset="100%"></stop>
        </linearGradient>
    </defs>
    <g id="Symbols" stroke="none" stroke-width="1" fill="none" fill-rule="evenodd">
        <g id="00_Assets/Icon/Feature/01" fill="url(#linearGradient-1)" fill-rule="nonzero">
            <g id="icon-01" transform="translate(11.187500, 0.000000)">
                <path d="M93.675,75.80625 L79.81875,67.678125 L93.675,59.540625 C94.684669,58.9530129 95.3057773,57.8728996 95.3057773,56.7046875 C95.3057773,55.5364754 94.684669,54.4563621 93.675,53.86875 L69.58125,39.975 C69.1708675,39.7385533 68.7332894,39.5528187 68.278125,39.421875 L68.278125,31.25625 L81.403125,31.25625 C82.1797754,31.25625 82.809375,30.6266504 82.809375,29.85 C82.809375,29.0733496 82.1797754,28.44375 81.403125,28.44375 L66.871875,28.44375 C66.0952246,28.44375 65.465625,29.0733496 65.465625,29.85 L65.465625,39.225 C64.7545455,39.3429043 64.0712689,39.5907907 63.45,39.95625 L57.478125,43.5 L57.478125,18.3375 C57.478125,17.5608496 56.8485254,16.93125 56.071875,16.93125 C55.2952246,16.93125 54.665625,17.5608496 54.665625,18.3375 L54.665625,45.15 L47.8125,49.171875 L35.625,42.0375 L35.625,30.88125 C35.625,30.1045996 34.9954004,29.475 34.21875,29.475 C33.4420996,29.475 32.8125,30.1045996 32.8125,30.88125 L32.8125,40.3875 L32.1375,39.99375 C30.2420522,38.8926731 27.9016978,38.8926731 26.00625,39.99375 L1.96875,53.86875 C0.959080996,54.4563621 0.337972677,55.5364754 0.337972677,56.7046875 C0.337972677,57.8728996 0.959080996,58.9530129 1.96875,59.540625 L15.825,67.678125 L1.95,75.80625 C0.962754969,76.3995104 0.35885216,77.4669641 0.35885216,78.61875 C0.35885216,79.7705359 0.962754969,80.8379896 1.95,81.43125 L17.15625,90.215625 L17.15625,100.3125 C17.1665972,101.474352 17.7906154,102.544097 18.796875,103.125 L45.215625,118.378125 C46.8099311,119.303085 48.7775689,119.303085 50.371875,118.378125 L76.790625,103.125 C77.7968846,102.544097 78.4209028,101.474352 78.43125,100.3125 L78.43125,90.2625 L93.6375,81.478125 C94.624745,80.8848646 95.2286478,79.8174109 95.2286478,78.665625 C95.2286478,77.5138391 94.624745,76.4463854 93.6375,75.853125 L93.675,75.80625 Z M25.2375,69.871875 L21.43125,67.678125 L25.2375,65.484375 L25.2375,69.871875 Z M28.05,63.853125 L32.8875,61.040625 L32.8875,74.2875 L28.05,71.475 L28.05,63.853125 Z M44.240625,67.5 C43.4639746,67.5 42.834375,68.1295996 42.834375,68.90625 L42.834375,80.053125 L35.625,75.9375 L35.625,59.4375 L47.8125,52.425 L54.665625,56.38125 L54.665625,78.965625 L47.8125,82.921875 L45.646875,81.675 L45.646875,68.8875 C45.6366165,68.1181818 45.0100116,67.4999316 44.240625,67.5 Z M57.478125,58.003125 L65.465625,62.615625 L65.465625,72.73125 L57.478125,77.34375 L57.478125,58.003125 Z M68.278125,64.2375 L74.23125,67.678125 L68.278125,71.109375 L68.278125,64.2375 Z M92.25,56.30625 C92.3941615,56.3894776 92.4833703,56.5429167 92.484375,56.709375 C92.489581,56.877466 92.3986531,57.033862 92.25,57.1125 L77.034375,66.046875 L68.278125,60.99375 L68.278125,42.46875 L92.25,56.30625 Z M64.875,42.421875 C65.0626664,42.312453 65.260459,42.2214056 65.465625,42.15 L65.465625,59.371875 L57.478125,54.759375 L57.478125,46.753125 L64.875,42.421875 Z M54.665625,48.4125 L54.665625,53.1 L50.625,50.79375 L54.665625,48.4125 Z M45,50.79375 L35.625,56.19375 L35.625,45.3 L45,50.79375 Z M11.49375,53.671875 C11.49375,54.2414186 11.0320436,54.703125 10.4625,54.703125 C9.89295635,54.703125 9.43125,54.2414186 9.43125,53.671875 C9.43125,53.1023314 9.89295635,52.640625 10.4625,52.640625 C11.0320436,52.640625 11.49375,53.1023314 11.49375,53.671875 Z M3.140625,56.709375 C3.14162975,56.5429167 3.2308385,56.3894776 3.375,56.30625 L6.684375,54.43125 C7.05010333,56.3854363 8.84569404,57.738247 10.8249518,57.5507896 C12.8042095,57.3633322 14.3138994,55.6974753 14.30625,53.709375 C14.3005585,52.5930111 13.8074339,51.534848 12.95625,50.8125 L27.45,42.440625 C27.9380876,42.147944 28.4935723,41.9864659 29.0625,41.971875 C29.6460325,41.9698874 30.2192955,42.1253486 30.721875,42.421875 L32.8125,43.65 L32.8125,57.815625 L27.975,60.628125 L27.975,53.746875 C27.975,52.9702246 27.3454004,52.340625 26.56875,52.340625 L17.8125,52.340625 C17.0358496,52.340625 16.40625,52.9702246 16.40625,53.746875 C16.40625,54.5235254 17.0358496,55.153125 17.8125,55.153125 L25.209375,55.153125 L25.209375,62.23125 L18.6,66.046875 L3.375,57.1125 C3.22634692,57.033862 3.13541899,56.877466 3.140625,56.709375 Z M3.140625,78.6375 C3.13760549,78.4699698 3.22791602,78.3146357 3.375,78.234375 L18.590625,69.3 L25.771875,73.453125 C25.8612856,73.5188529 25.959011,73.5724443 26.0625,73.6125 L30.928125,76.425 L44.990625,84.5625 L30.28125,93.20625 C29.5547796,93.6324842 28.6545954,93.6324842 27.928125,93.20625 L3.375,79.040625 C3.22941139,78.9588373 3.13967237,78.8044861 3.140625,78.6375 Z M20.221875,100.753125 C20.0775992,100.665479 19.9889353,100.50943 19.9875,100.340625 L19.9875,91.903125 L26.55,95.653125 C28.1508797,96.5909858 30.1334953,96.5909858 31.734375,95.653125 L46.434375,87.028125 L46.434375,115.884375 L20.221875,100.753125 Z M75.6375,100.340625 C75.6360647,100.50943 75.5474008,100.665479 75.403125,100.753125 L49.21875,115.865625 L49.21875,87.009375 L63.91875,95.625 C65.5196297,96.5628608 67.5022453,96.5628608 69.103125,95.625 L75.665625,91.875 L75.6375,100.340625 Z M92.25,79.040625 L67.696875,93.215625 C66.9704046,93.6418592 66.0702204,93.6418592 65.34375,93.215625 L50.625,84.5625 L66.7875,75.1875 L77.1,69.2625 L92.315625,78.196875 C92.462709,78.2771357 92.5530195,78.4324698 92.55,78.6 C92.5541546,78.7958097 92.4337051,78.9727198 92.25,79.040625 Z M34.25625,26.484375 C35.8163933,26.4881664 37.2248489,25.5507751 37.8236427,24.1101128 C38.4224364,22.6694506 38.0933756,21.0098818 36.9901844,19.9066906 C35.8869932,18.8034994 34.2274244,18.4744386 32.7867622,19.0732323 C31.3460999,19.6720261 30.4087086,21.0804817 30.4125,22.640625 C30.4176536,24.7613311 32.1355439,26.4792214 34.25625,26.484375 Z M34.25625,21.6 C34.6779759,21.5962005 35.0602933,21.8473175 35.2243203,22.2358561 C35.3883474,22.6243948 35.3016449,23.0735151 35.00478,23.3730787 C34.7079151,23.6726424 34.2595978,23.7634056 33.8695907,23.6029014 C33.4795836,23.4423973 33.2250171,23.062368 33.225,22.640625 C33.2148643,22.3598155 33.3187203,22.0868419 33.5129486,21.8837851 C33.7071769,21.6807282 33.9752674,21.5648486 34.25625,21.5625 L34.25625,21.6 Z M56.071875,8.56875 C58.1974358,8.57386503 59.9256571,6.85674606 59.9342409,4.73119644 C59.9428246,2.60564681 58.2285283,0.874625632 56.1029955,0.8625731 C53.9774627,0.850520568 52.2436462,2.56198971 52.228125,4.6875 C52.220639,5.71265377 52.6219976,6.69852603 53.3433826,7.42694896 C54.0647677,8.15537188 55.0466969,8.56628297 56.071875,8.56875 Z M56.071875,3.684375 C56.4944508,3.68058485 56.8773563,3.93272513 57.0408248,4.32242081 C57.2042932,4.71211649 57.1158594,5.16197291 56.8170411,5.46079114 C56.5182229,5.75960937 56.0683665,5.84804325 55.6786708,5.68457478 C55.2889751,5.52110631 55.0368349,5.13820079 55.040625,4.715625 C55.040625,4.14608135 55.5023314,3.684375 56.071875,3.684375 Z M87.3375,33.684375 C88.8967911,33.6881689 90.304655,32.7517944 90.9040006,31.3122847 C91.5033461,29.872775 91.1760072,28.213942 90.0747624,27.1100112 C88.9735176,26.0060805 87.3154869,25.6747015 85.8745214,26.2705386 C84.433556,26.8663756 83.4937546,28.2719543 83.49375,29.83125 C83.4912606,30.8531632 83.8948281,31.8342101 84.6156717,32.55857 C85.3365153,33.2829299 86.3155868,33.6912666 87.3375,33.69375 L87.3375,33.684375 Z M87.3375,28.8 C87.7600758,28.7962099 88.1429813,29.0483501 88.3064498,29.4380458 C88.4699182,29.8277415 88.3814844,30.2775979 88.0826661,30.5764161 C87.7838479,30.8752344 87.3339915,30.9636682 86.9442958,30.8001998 C86.5546001,30.6367313 86.3024599,30.2538258 86.30625,29.83125 C86.3163874,29.2674921 86.7736731,28.8143636 87.3375,28.809375 L87.3375,28.8 Z M12.9,33.684375 C14.4592911,33.6881689 15.867155,32.7517944 16.4665006,31.3122847 C17.0658461,29.872775 16.7385072,28.213942 15.6372624,27.1100112 C14.5360176,26.0060805 12.8779869,25.6747015 11.4370214,26.2705386 C9.99605599,26.8663756 9.05625462,28.2719543 9.05625,29.83125 C9.05376057,30.8531632 9.4573281,31.8342101 10.1781717,32.55857 C10.8990153,33.2829299 11.8780868,33.6912666 12.9,33.69375 L12.9,33.684375 Z M12.9,28.8 C13.3225758,28.7962099 13.7054813,29.0483501 13.8689498,29.4380458 C14.0324182,29.8277415 13.9439844,30.2775979 13.6451661,30.5764161 C13.3463479,30.8752344 12.8964915,30.9636682 12.5067958,30.8001998 C12.1171001,30.6367313 11.8649599,30.2538258 11.86875,29.83125 C11.8788874,29.2674921 12.3361731,28.8143636 12.9,28.809375 L12.9,28.8 Z M48.084375,62.19375 C48.084375,60.0709055 46.3634695,58.35 44.240625,58.35 C42.1177805,58.35 40.396875,60.0709055 40.396875,62.19375 C40.396875,64.3165945 42.1177805,66.0375 44.240625,66.0375 C46.3613311,66.0323464 48.0792214,64.3144561 48.084375,62.19375 Z M44.240625,63.225 C43.8180492,63.2287901 43.4351437,62.9766499 43.2716752,62.5869542 C43.1082068,62.1972585 43.1966406,61.7474021 43.4954589,61.4485839 C43.7942771,61.1497656 44.2441335,61.0613318 44.6338292,61.2248002 C45.0235249,61.3882687 45.2756651,61.7711742 45.271875,62.19375 C45.271875,62.7632936 44.8101686,63.225 44.240625,63.225 Z" id="Shape"></path>
            </g>
        </g>
    </g>
</svg>