<?xml version="1.0" encoding="UTF-8"?>
<svg width="21px" height="21px" viewBox="0 0 21 21" version="1.1" xmlns="http://www.w3.org/2000/svg" xmlns:xlink="http://www.w3.org/1999/xlink">
    <defs></defs>
    <g id="Symbols" stroke="none" stroke-width="1" fill="none" fill-rule="evenodd">
        <g id="02_Components/Mobile/Footer/Default" transform="translate(-178.000000, -354.000000)" fill="#758796">
            <g id="00_Assets/Icon/Social/Instagram" transform="translate(178.000000, 354.000000)">
                <path d="M13.9285878,10.4285612 C13.9285878,8.5401661 12.3884074,6.99998569 10.5000123,6.99998569 C8.61161715,6.99998569 7.07143675,8.5401661 7.07143675,10.4285612 C7.07143675,12.3169563 8.61161715,13.8571367 10.5000123,13.8571367 C12.3884074,13.8571367 13.9285878,12.3169563 13.9285878,10.4285612 Z M15.7768043,10.4285612 C15.7768043,13.3482075 13.4196586,15.7053532 10.5000123,15.7053532 C7.58036592,15.7053532 5.22322026,13.3482075 5.22322026,10.4285612 C5.22322026,7.50891487 7.58036592,5.15176921 10.5000123,5.15176921 C13.4196586,5.15176921 15.7768043,7.50891487 15.7768043,10.4285612 Z M17.2232346,4.93748324 C17.2232346,5.62051976 16.6741268,6.16962756 15.9910902,6.16962756 C15.3080537,6.16962756 14.7589459,5.62051976 14.7589459,4.93748324 C14.7589459,4.25444671 15.3080537,3.70533891 15.9910902,3.70533891 C16.6741268,3.70533891 17.2232346,4.25444671 17.2232346,4.93748324 Z M10.5000123,1.99105115 C9.00001047,1.99105115 5.78572093,1.87051529 4.43304074,2.40623022 C3.96429018,2.59373044 3.61607548,2.82140929 3.25446791,3.18301686 C2.89286034,3.54462443 2.66518149,3.89283913 2.47768127,4.36158969 C1.94196635,5.71426988 2.0625022,8.92855942 2.0625022,10.4285612 C2.0625022,11.928563 1.94196635,15.1428525 2.47768127,16.4955327 C2.66518149,16.9642833 2.89286034,17.312498 3.25446791,17.6741056 C3.61607548,18.0357131 3.96429018,18.263392 4.43304074,18.4508922 C5.78572093,18.9866071 9.00001047,18.8660713 10.5000123,18.8660713 C12.000014,18.8660713 15.2143036,18.9866071 16.5669838,18.4508922 C17.0357343,18.263392 17.383949,18.0357131 17.7455566,17.6741056 C18.1071642,17.312498 18.334843,16.9642833 18.5223433,16.4955327 C19.0580582,15.1428525 18.9375223,11.928563 18.9375223,10.4285612 C18.9375223,8.92855942 19.0580582,5.71426988 18.5223433,4.36158969 C18.334843,3.89283913 18.1071642,3.54462443 17.7455566,3.18301686 C17.383949,2.82140929 17.0357343,2.59373044 16.5669838,2.40623022 C15.2143036,1.87051529 12.000014,1.99105115 10.5000123,1.99105115 Z M20.7857388,10.4285612 C20.7857388,11.8482058 20.7991317,13.2544574 20.7187744,14.674102 C20.6384172,16.3214254 20.2634168,17.7812485 19.0580582,18.9866071 C17.8526996,20.1919657 16.3928764,20.5669662 14.745553,20.6473234 C13.3259085,20.7276806 11.9196568,20.7142878 10.5000123,20.7142878 C9.08036771,20.7142878 7.67411604,20.7276806 6.25447149,20.6473234 C4.60714809,20.5669662 3.14732493,20.1919657 1.94196635,18.9866071 C0.736607766,17.7812485 0.361607318,16.3214254 0.28125008,14.674102 C0.200892841,13.2544574 0.214285714,11.8482058 0.214285714,10.4285612 C0.214285714,9.00891666 0.200892841,7.60266498 0.28125008,6.18302044 C0.361607318,4.53569704 0.736607766,3.07587387 1.94196635,1.87051529 C3.14732493,0.665156715 4.60714809,0.290156268 6.25447149,0.209799029 C7.67411604,0.12944179 9.08036771,0.142834663 10.5000123,0.142834663 C11.9196568,0.142834663 13.3259085,0.12944179 14.745553,0.209799029 C16.3928764,0.290156268 17.8526996,0.665156715 19.0580582,1.87051529 C20.2634168,3.07587387 20.6384172,4.53569704 20.7187744,6.18302044 C20.7991317,7.60266498 20.7857388,9.00891666 20.7857388,10.4285612 Z"></path>
            </g>
        </g>
    </g>
</svg>