<?xml version="1.0" encoding="UTF-8"?>
<svg width="21px" height="21px" viewBox="0 0 21 21" version="1.1" xmlns="http://www.w3.org/2000/svg" xmlns:xlink="http://www.w3.org/1999/xlink">
    <defs></defs>
    <g id="Symbols" stroke="none" stroke-width="1" fill="none" fill-rule="evenodd">
        <g id="02_Components/Mobile/Footer/Default" transform="translate(-322.000000, -354.000000)" fill="#758796">
            <g id="00_Assets/Icon/Social/Linkedin" transform="translate(322.000000, 354.000000)">
                <path d="M4.88839843,6.7990926 L4.88839843,20.0714298 L0.468750303,20.0714298 L0.468750303,6.7990926 L4.88839843,6.7990926 Z M5.16964876,2.70087343 C5.18304164,3.97319637 4.21875477,4.99105473 2.67857437,4.99105473 L2.65178862,4.99105473 C1.1651797,4.99105473 0.214285714,3.97319637 0.214285714,2.70087343 C0.214285714,1.40176474 1.20535832,0.410692126 2.70536011,0.410692126 C4.21875477,0.410692126 5.15625589,1.40176474 5.16964876,2.70087343 Z M11.7321566,8.68554801 C12.313568,7.77665959 13.3624095,6.49105652 15.7098399,6.49105652 C18.6160934,6.49105652 20.7857388,8.3928445 20.7857388,12.4642779 L20.7857388,20.0714298 L16.3794836,20.0714298 L16.3794836,12.9732071 C16.3794836,11.191955 15.7366256,9.97320352 14.1428737,9.97320352 C12.9241223,9.97320352 12.2009071,10.7901688 11.8794782,11.5803483 C11.7723352,11.8749915 11.7321566,12.2633848 11.7321566,12.665171 L11.7321566,20.0714298 L7.32590133,20.0714298 C7.37947283,8.0446298 7.32590133,6.7990926 7.32590133,6.7990926 L11.7321566,6.7990926 L11.7321566,8.68554801 Z"></path>
            </g>
        </g>
    </g>
</svg>