<?xml version="1.0" encoding="UTF-8"?>
<svg width="24px" height="21px" viewBox="0 0 24 21" version="1.1" xmlns="http://www.w3.org/2000/svg" xmlns:xlink="http://www.w3.org/1999/xlink">
    <defs></defs>
    <g id="Symbols" stroke="none" stroke-width="1" fill="none" fill-rule="evenodd">
        <g id="02_Components/Mobile/Footer/Default" transform="translate(-32.000000, -354.000000)" fill="#758796">
            <g id="00_Assets/Icon/Social/Medium" transform="translate(32.000000, 354.000000)">
                <path d="M7.99554525,4.06694648 L7.99554525,19.7767866 C7.99554525,20.1919657 7.79465215,20.580359 7.33929446,20.580359 C7.17857999,20.580359 7.03125838,20.5401804 6.89732965,20.473216 L0.669643655,17.3526766 C0.294643208,17.1651764 0,16.683033 0,16.2812468 L0,1.01337142 C0,0.678549588 0.160714477,0.370513506 0.522322051,0.370513506 C0.736608021,0.370513506 0.924108244,0.477656491 1.11160847,0.571406603 L7.95536663,3.99998212 C7.9687595,4.01337499 7.99554525,4.05355361 7.99554525,4.06694648 Z M8.85268912,5.41962667 L16.0044834,17.0178548 L8.85268912,13.4553505 L8.85268912,5.41962667 Z M24.0000286,5.66069838 L24.0000286,19.7767866 C24.0000286,20.2187515 23.745564,20.5267875 23.3035992,20.5267875 C23.0759204,20.5267875 22.8616344,20.4598232 22.6741342,20.3526802 L16.7678771,17.4062481 L24.0000286,5.66069838 Z M23.95985,4.05355361 C23.95985,4.1071251 17.0357346,15.3437456 16.5000197,16.2008895 L11.2767992,7.70980797 L15.61609,0.651763842 C15.7634116,0.410692126 16.0312691,0.276763394 16.3125194,0.276763394 C16.4330553,0.276763394 16.5535912,0.303549141 16.6607341,0.357120633 L23.9062785,3.97319637 C23.9330642,3.98658925 23.95985,4.01337499 23.95985,4.05355361 Z"></path>
            </g>
        </g>
    </g>
</svg>