<?xml version="1.0" encoding="UTF-8"?>
<svg width="24px" height="25px" viewBox="0 0 24 25" version="1.1" xmlns="http://www.w3.org/2000/svg" xmlns:xlink="http://www.w3.org/1999/xlink">
    <defs></defs>
    <g id="Symbols" stroke="none" stroke-width="1" fill="none" fill-rule="evenodd">
        <g id="02_Components/Mobile/Footer/Default" transform="translate(-248.000000, -352.000000)" fill="#758796">
            <g id="00_Assets/Icon/Social/Telegram" transform="translate(248.000000, 352.000000)">
                <path d="M15.9241261,17.9330321 L17.8928785,8.65177099 C18.0669858,7.83480573 17.5982353,7.51337678 17.0625203,7.71426988 L5.49107797,12.1740966 C4.70089846,12.4821327 4.71429133,12.9240975 5.35714924,13.1249906 L8.3169742,14.0490989 L15.1875181,9.72320084 C15.5089471,9.50891487 15.8035903,9.62945073 15.5625186,9.8437367 L10.0044762,14.8660641 L9.79019024,17.9196392 C10.0982263,17.9196392 10.2321551,17.7857105 10.3928695,17.624996 L11.8392998,16.2321372 L14.8393034,18.4419612 C15.3884112,18.7499973 15.7768045,18.5892828 15.9241261,17.9330321 Z M24.0000286,12.4285612 C24.0000286,19.0580334 18.6294865,24.4285755 12.0000143,24.4285755 C5.37054212,24.4285755 0,19.0580334 0,12.4285612 C0,5.79908902 5.37054212,0.428546906 12.0000143,0.428546906 C18.6294865,0.428546906 24.0000286,5.79908902 24.0000286,12.4285612 Z"></path>
            </g>
        </g>
    </g>
</svg>