<svg xmlns="http://www.w3.org/2000/svg" width="22" height="21" viewBox="0 0 22 21">
    <path fill="#758796" fill-rule="evenodd" d="M22 4.025a9.253 9.253 0 0 1-2.159 2.226c.014.186.014.373.014.56 0 5.689-4.33 12.245-12.246 12.245-2.438 0-4.704-.706-6.609-1.932.346.04.68.053 1.04.053a8.62 8.62 0 0 0 5.343-1.839 4.311 4.311 0 0 1-4.024-2.985c.266.04.532.067.812.067a4.55 4.55 0 0 0 1.133-.147A4.304 4.304 0 0 1 1.853 8.05v-.053c.573.32 1.239.52 1.945.547A4.3 4.3 0 0 1 1.88 4.958c0-.8.214-1.532.587-2.172A12.234 12.234 0 0 0 11.34 7.29a4.858 4.858 0 0 1-.106-.986A4.302 4.302 0 0 1 15.537 2c1.24 0 2.359.52 3.145 1.36a8.473 8.473 0 0 0 2.732-1.04c-.32 1-1 1.839-1.892 2.372A8.629 8.629 0 0 0 22 4.025z"/>
</svg>
